<?xml version="1.0" encoding="UTF-8"?><svg id="b" xmlns="http://www.w3.org/2000/svg" width="329.15" height="308.11" viewBox="0 0 329.15 308.11"><g id="c"><g><path d="m213.29,190.1c-.71.54.12.96.26,1.18,1.6,2.45,1.99,5.24,2.45,8.04.59,3.62.06,7.25.05,10.87,0,2.78.18,5.54.6,8.28.25,1.63.68,3.22,1.34,4.73.28.64.45,1.29-.09,1.69-.49.36-1.21.53-1.87.28-1.44-.55-2.7-1.42-3.99-2.23-3.86-2.42-7.01-5.64-9.95-9.05-1.42-1.64-2.52-3.55-3.75-5.35-1.81-2.63-3.25-5.51-5.11-8.12-2.27-3.19-5.13-5.78-8.22-8.14-1.29-.99-2.41-2.14-3.54-3.36-.14.34.04.56.13.8,1.29,3.39,3.27,6.37,5.58,9.15,2.83,3.41,5.09,7.12,6.08,11.49.87,3.85.95,7.73.29,11.63-.07.43-.24.84-.39,1.26-.11.3-.33.47-.66.41-.33-.06-.48-.31-.47-.62.03-.6.12-1.19.15-1.79.32-7.55-1.29-14.49-6.28-20.42-2.71-3.22-4.93-6.76-6.32-10.77-.03-.08-.09-.14-.21-.31-.16.63-.07,1.15-.04,1.66.19,3.79.97,7.49,1.59,11.21.7,4.2.03,8.23-1.54,12.12-1.04,2.6-2.3,5.1-3.41,7.68-1.76,4.06-3.16,8.22-3.25,12.72-.01.52-.04,1.17-.61,1.39-.64.24-1.33.1-1.86-.35-.45-.39-.84-.85-1.19-1.33-4.35-5.87-7.07-12.44-8.43-19.61-.62-3.28-1.01-6.6-1.59-9.88-.85-4.78-3.04-9.05-5.41-13.22-.02-.04-.1-.05-.24-.12-.38,3.11-.91,6.17.16,9.24.64,1.83,1.45,3.63,1.68,5.59.29,2.46.22,4.92-.43,7.31-.8,2.93-2.13,5.65-3.71,8.23-.29.48-.7.89-1.07,1.32-.18.21-.42.46-.72.23-.31-.24-.08-.51.08-.74,1.61-2.45,2.64-5.15,3.4-7.95.96-3.52.91-7.04-.4-10.48-1.1-2.91-2.01-5.84-1.57-9.01.28-2.02.55-4.05.83-6.08.03-.22.04-.43.08-.8-.84.57-1.38,1.31-1.99,1.93-1.49,1.47-3.28,2.55-4.79,3.99-2.5,2.38-4.84,4.85-6.61,7.87-1.69,2.89-3.48,5.74-5.41,8.49-1.82,2.59-3.84,4.99-6.11,7.17-2.54,2.45-5.36,4.58-8.48,6.25-.73.39-1.48.95-2.5.57-.96-.35-1.3-.78-.9-1.72.5-1.19.93-2.4,1.2-3.67.32-1.56.53-3.14.69-4.73.25-2.45.24-4.9.14-7.35-.09-2.21-.28-4.43-.11-6.64.19-2.44.57-4.87,1.44-7.18,1.14-3.03,3.15-5.53,4.81-8.25,1.46-2.38,2.77-4.86,3.9-7.42.45-1.02.95-2.01,1.37-3.05.13-.31.23-.62.22-.98-.36-.04-.42.27-.57.43-.61.68-1.15,1.42-1.79,2.07-5.02,5.18-8,11.57-10.67,18.11-2.23,5.46-6.35,8.86-11.5,11.26-.37.17-.77.28-1.16.39-.27.07-.6.12-.73-.22-.14-.36.16-.51.41-.63,1.18-.55,2.25-1.26,3.31-1.99,3.68-2.56,6.49-5.81,8.17-10.02.96-2.41,2.14-4.74,3.15-7.16-.53.64-1.09,1.26-1.58,1.92-2.12,2.85-5.05,4.6-8.17,6.11-3.02,1.47-6.3,2.27-9.39,3.55-3.87,1.6-7.66,3.36-10.74,6.32-.41.39-.88.87-1.48.5-.54-.34-.95-.88-.97-1.6-.06-2.01.5-3.93.95-5.86,1.03-4.42,2.8-8.54,5.2-12.4,1.86-2.98,3.83-5.87,6.07-8.57,3.42-4.14,5.66-8.89,7.08-14.05.33-1.19.81-2.34,1.41-3.74-1.52,1.4-2.76,2.67-3.75,4.16-.99,1.5-1.93,3.02-2.86,4.56-2.19,3.64-5.28,6.29-9.02,8.23-1.34.69-2.72,1.32-4.07,2-2.59,1.29-4.7,3.13-6.33,5.53-.17.24-.31.67-.7.44-.38-.22-.1-.57.03-.83,1.41-2.76,3.57-4.85,6.03-6.66,1.19-.88,2.51-1.56,3.81-2.26,3.6-1.94,6.53-4.57,8.61-8.13.88-1.51,1.83-2.99,2.82-4.47-1.36.48-2.57,1.26-3.7,2.07-3.34,2.38-6.97,3.83-11.07,4.32-3.64.44-7.25.03-10.87.02-2.78,0-5.54.19-8.28.61-1.63.25-3.22.69-4.73,1.34-.6.26-1.2.46-1.61-.06-.36-.46-.53-1.1-.36-1.74.31-1.13.93-2.12,1.54-3.09.85-1.36,1.76-2.71,2.8-3.93,1.65-1.94,3.34-3.82,5.25-5.53,2.48-2.24,5.24-4.07,8-5.92,2.22-1.49,4.62-2.74,6.85-4.22,1.77-1.17,3.27-2.69,4.8-4.18,2.25-2.19,3.84-4.95,6.19-7.03.46-.41.91-.82,1.56-1.41-.87.22-1.37.66-1.89,1.01-2.6,1.74-5.37,3.01-8.5,3.44-1.32.18-2.64.17-3.96.16-2.39-.02-4.78-.09-7.18.07-2.87.19-5.48,1.09-7.88,2.62-2.12,1.36-4.17,2.82-6.11,4.44-.26.21-.52.59-.88.28-.38-.32-.05-.66.18-.88,3.79-3.62,7.58-7.27,13.05-8.2,3.09-.53,6.22-.29,9.33-.21,2.65.07,5.2-.34,7.63-1.44,1.43-.65,2.78-1.43,4.2-2.34-.46-.21-.83-.11-1.18-.09-3.72.2-7.36.97-11.03,1.58-4.2.7-8.23.03-12.12-1.53-2.63-1.06-5.16-2.33-7.76-3.45-4.04-1.74-8.17-3.13-12.63-3.22-.55-.01-1.25-.03-1.43-.69-.17-.6-.07-1.28.38-1.77.4-.44.86-.84,1.33-1.19,5.81-4.39,12.32-7.14,19.48-8.43,2.82-.51,5.64-1.01,8.48-1.36,3.57-.45,6.89-1.71,10.11-3.25,2.29-1.1,4.41-2.56,6.85-3.49-1.07-.15-2.14-.26-3.2-.45-2.71-.5-5.31-1.38-7.75-2.63-5.15-2.65-10.56-4.16-16.37-4.29-3.4-.08-6.3-1.59-8.96-3.61-.15-.11-.28-.25-.42-.38-.17-.16-.34-.34-.16-.56.19-.24.4-.07.58.04.16.1.32.2.48.31,2.76,1.79,5.74,2.8,9.08,2.69,3.35-.11,6.67,0,9.88,1.14,2.17.77,4.28,1.65,6.33,2.7,2.84,1.46,5.81,2.57,8.98,3.07.27.04.55.06.84.09-.01-.69-.61-.88-.92-1.28-1.56-2.04-3.13-4.08-4.96-5.87-1.75-1.72-3.62-3.33-5.76-4.62-3.09-1.85-6.17-3.73-9.13-5.8-2.59-1.81-4.99-3.85-7.17-6.1-2.43-2.51-4.53-5.33-6.19-8.42-.4-.75-.99-1.52-.57-2.59.35-.87.76-1.23,1.66-.88.94.37,1.86.76,2.85,1.01,4.04,1,8.14,1.18,12.26,1.03,2.48-.09,4.98-.33,7.45-.11,2.4.21,4.79.59,7.09,1.47,3,1.14,5.47,3.13,8.18,4.76,2.14,1.29,4.29,2.62,6.67,3.51.16-.41-.24-.54-.4-.77-.19-.28-.49-.5-.7-.77-3.91-5.11-8.94-8.9-14.44-12.13-4.25-2.5-7.58-5.9-9.78-10.36-.47-.96-.9-1.95-1.05-3.02-.05-.35-.16-.83.32-.98.54-.17.67.31.84.68,1.9,4.23,4.65,7.76,8.53,10.36,1.93,1.3,3.88,2.58,5.86,3.81,3.09,1.93,5.95,4.12,8.23,7,.09.12.15.27.32.33.08-.97-.37-1.75-.66-2.55-1.5-4.19-3.99-7.78-6.74-11.25-3.32-4.19-6.29-8.64-8.33-13.63-1.42-3.48-2.45-7.07-2.85-10.82-.08-.77-.16-1.52.42-2.22.58-.69.96-.82,1.7-.25.81.64,1.53,1.38,2.39,1.99,3.7,2.63,7.81,4.36,12.08,5.8,4.37,1.48,8.66,3.12,12.16,6.32,1.54,1.41,2.86,3.01,3.94,4.76,1.74,2.82,7.36,9.28,10.08,11.35-.03-.38-.24-.59-.41-.82-2.75-3.76-5.43-7.57-7.82-11.58-.73-1.22-1.62-2.31-2.58-3.36-1.66-1.81-3.26-3.68-4.91-5.49-3.2-3.52-4.61-7.8-5.33-12.39-.21-1.37-.43-2.74-.38-4.13.02-.41-.02-.9.52-.97.56-.07.61.43.68.84.37,2.27.89,4.5,1.45,6.73.82,3.2,2.31,6.04,4.51,8.5,1.62,1.81,3.2,3.65,4.85,5.42,1.43,1.54,2.53,3.29,3.62,5.06,1.02,1.66,2.06,3.32,3.1,4.96.15.24.23.64.68.47-.26.29-.08.47.14.66.26-.32-.25-.41-.15-.66-.83-1.5-1.52-3.1-2.52-4.48-1.24-1.71-2.23-3.57-3.42-5.3-1.2-1.75-1.77-3.75-2.22-5.8-.69-3.13-.76-6.27-.6-9.47.19-3.73.23-7.47-.33-11.18-.31-2.04-.7-4.06-1.54-5.95-.27-.61-.39-1.2.1-1.61.43-.36,1.06-.5,1.67-.32,1.68.48,3.04,1.54,4.48,2.47,2.41,1.56,4.58,3.43,6.59,5.46,1.93,1.94,3.61,4.1,5.21,6.33,2.43,3.37,4.33,7.07,6.7,10.47,2.24,3.21,5.12,5.79,8.18,8.16,2.06,1.59,3.77,3.49,5.31,5.66.46-.65.11-1.2-.11-1.7-1.19-2.65-2.71-5.11-4.44-7.44-1.77-2.38-3.54-4.76-4.47-7.62-1.21-3.73-1.47-7.55-.61-11.37.85-3.8,1.88-7.56,3.01-11.3.17-.57.39-1.13.64-1.67.14-.31.21-.85.74-.66.47.17.2.61.11.91-.6,2.03-1.07,4.08-1.36,6.17-.48,3.42-1.52,6.75-1.62,10.24-.12,4.53,1.08,8.64,3.84,12.27,1.69,2.23,3.25,4.55,4.64,7.07-.02-.34-.03-.69-.05-1.03-.26-3.33-.96-6.6-1.5-9.89-.69-4.17-.02-8.17,1.53-12.03,1.14-2.83,2.5-5.57,3.71-8.37,1.36-3.13,2.35-6.37,2.82-9.76.1-.75.07-1.51.15-2.26.05-.55.03-1.25.66-1.45.63-.21,1.33-.08,1.85.4.44.4.83.86,1.18,1.34,4.35,5.87,7.04,12.45,8.41,19.61.66,3.47,1.01,6.98,1.7,10.44.72,3.58,2.16,6.9,3.91,10.09.96,1.76,1.94,3.51,2.56,5.44.1-1.21-.14-2.37-.37-3.52-.63-3.11-1.75-6.11-2.2-9.27-.54-3.82-.11-7.51,1.24-11.13,1.65-4.4,4.36-8.14,7.19-11.81.86-1.12,1.79-2.2,2.7-3.28.21-.25.44-.65.84-.35.37.27.15.64-.04.92-1.32,1.96-2.65,3.91-3.98,5.86-2.41,3.56-4.53,7.26-5.63,11.46-.96,3.67-.68,7.3.24,10.92.78,3.04,1.64,6.06,1.88,9.36,1-.87,1.85-1.72,2.81-2.42,2.68-1.98,5.05-4.27,7.17-6.83,1.68-2.04,2.87-4.39,4.28-6.61,2.1-3.32,4.22-6.62,6.87-9.56,1.48-1.64,3.05-3.13,4.71-4.57,2.25-1.96,4.7-3.58,7.33-4.97.74-.39,1.47-.25,2.11-.04.62.2.73.96.45,1.52-1.49,3.02-1.78,6.32-2.05,9.57-.19,2.27-.04,4.59.06,6.89.17,3.64.13,7.27-.72,10.9-.7,2.97-2.23,5.4-3.79,7.91-2.05,3.31-4.21,6.57-5.67,10.22-.34.86-.97,1.6-1.12,2.54.21.16.31,0,.41-.09,1.46-1.44,2.91-2.91,4.01-4.63,2.05-3.2,4.17-6.38,5.81-9.83,1.42-2.99,3.02-5.88,4.6-8.78,2.86-5.27,7.13-8.97,12.68-11.21.34-.14.75-.43,1.01.01.27.46-.22.65-.52.85-1.05.69-2.12,1.36-3.17,2.05-3.7,2.41-6.44,5.67-8.61,9.48-2.77,4.87-4.99,10.03-8.04,14.76.23.12.36.04.47-.12,1.42-2.15,2.92-4.23,4.6-6.18,1.33-1.55,3.02-2.7,4.75-3.79,3.73-2.35,8.01-3.33,12.02-4.96,3.92-1.59,7.72-3.38,10.83-6.35.41-.39.89-.85,1.49-.48.53.32.89.86.94,1.52.11,1.7-.37,3.31-.69,4.95-.78,4.04-2.33,7.79-4.29,11.37-2.04,3.74-4.5,7.21-7.19,10.52-3.09,3.78-5.29,8.02-6.69,12.71-.58,1.94-1.09,3.91-2.12,5.71,2.13-.91,4.17-1.87,6.06-3.15,1.77-1.2,3.62-2.28,5.44-3.39.71-.43,1.4-.91,2.15-1.23,2.16-.91,4.43-1.4,6.76-1.75,3.66-.54,7.31-.04,10.97-.04,2.78,0,5.53-.19,8.28-.63,1.64-.26,3.22-.69,4.73-1.34.61-.26,1.2-.39,1.61.1.36.43.49,1.06.32,1.67-.45,1.62-1.48,2.93-2.35,4.33-2.38,3.81-5.53,6.95-8.94,9.79-2.14,1.77-4.52,3.27-6.88,4.76-2.63,1.66-5.43,3.06-7.84,5.07-2.59,2.15-4.86,4.58-6.88,7.25-1.44,1.89-3.18,3.47-5.14,4.94.36.21.59-.02.8-.12,2.71-1.27,5.35-2.66,7.7-4.56,4.04-3.27,8.76-4.77,13.85-5.13,4.42-.31,8.8.21,13.1,1.29,1.01.25,1.98.62,2.88,1.15.31.19.79.34.59.82-.21.51-.63.21-.97.11-7.98-2.32-15.91-2.6-23.78.47-1.71.67-3.24,1.67-4.68,2.8-1.68,1.32-3.53,2.39-5.4,3.45,2.02.03,3.99-.26,5.96-.57,1.74-.28,3.48-.59,5.21-.89,4.3-.75,8.41,0,12.38,1.62,2.74,1.12,5.39,2.44,8.1,3.61,3.13,1.36,6.38,2.35,9.76,2.81.75.1,1.51.07,2.26.14.55.05,1.25.03,1.44.68.19.63.06,1.32-.42,1.85-.32.35-.67.66-1.05.95-5.3,4.14-11.29,6.81-17.85,8.22-3.39.72-6.79,1.33-10.24,1.75-4.18.5-8.03,2.08-11.72,4.03-1.56.82-3.06,1.75-4.73,2.42,1.38.22,2.75.08,4.11-.12,2.5-.36,4.98-.85,7.31-1.82,5.85-2.44,11.45-1.72,16.87,1.25,3.41,1.87,6.97,3.35,10.8,4.11,1.33.26,2.67.43,4.03.17.37-.07.82-.15.95.34.15.56-.33.65-.72.78-2.39.75-4.74.24-7.07-.3-2.83-.65-5.52-1.7-8.11-3.02-1.57-.8-3.2-1.46-4.88-2.01-3.07-1.01-6.16-1-9.18.06-4.64,1.62-9.34,2.78-14.52,2.54.94,1.06,1.84,1.92,2.56,2.92,1.94,2.68,4.22,5.02,6.76,7.12,2.09,1.72,4.5,2.93,6.77,4.36,3.78,2.39,7.51,4.85,10.75,7.98,1.53,1.49,3.03,3.02,4.28,4.72,1.44,1.97,2.96,3.92,3.96,6.19.34.76.21,1.47,0,2.11-.18.53-.92.69-1.46.42-3.02-1.48-6.31-1.79-9.57-2.05-2.28-.18-4.59-.06-6.89.05-3.64.18-7.28.14-10.9-.7-2.99-.7-5.45-2.26-7.99-3.82-2.27-1.39-4.44-2.94-6.86-4.09-.13-.06-.3-.06-.64-.12.35.61.62,1.12.93,1.6,1.68,2.64,3.83,4.82,6.5,6.48,2.17,1.35,4.46,2.48,6.68,3.72,3.86,2.16,6.95,5.06,8.89,9.1,1.01,2.11,2.35,4.02,3.87,5.8.55.65,1.11,1.29,1.9,1.67.29.14.63.28.44.68-.17.37-.51.26-.83.18-1.04-.29-1.83-.97-2.58-1.69-1.71-1.64-3.23-3.47-4.46-5.48-2.44-4-5.8-6.92-9.95-9-.65-.32-1.27-.69-1.91-1.04-3.49-1.89-6.72-4.11-9.04-7.51-.09.67.3,1.83.8,3.08.91,2.28,1.96,4.5,3.29,6.56.88,1.37,1.93,2.63,2.94,3.91,3.46,4.42,6.63,9.02,8.78,14.23,1.43,3.47,2.4,7.08,2.85,10.81.09.77.16,1.53-.43,2.22-.55.65-.95.8-1.62.29-.85-.64-1.58-1.42-2.46-2.05-3.7-2.62-7.81-4.36-12.08-5.8-4.28-1.44-8.48-3.06-11.95-6.13-1.65-1.45-2.91-3.19-4.16-4.95-2.99-4.2-6.23-8.18-10.19-11.52-.24-.2-.53-.34-.84-.54-.14.45.09.74.3,1.02,3.43,4.59,6.47,9.45,9.98,13.99,2.15,2.78,4.49,5.35,7.1,7.69,2.58,2.32,5.07,4.73,6.88,7.73.5.84.94,1.71,1.23,2.64.1.3.09.59-.22.73-.32.15-.55-.06-.68-.33-1.9-3.79-5.21-6.25-8.32-8.9-2.79-2.38-5.32-5-7.39-8.04-.28-.16-.3-.57-.66-.66.05-.21-.09-.33-.24-.43,0,0-.05.05-.05.07-.01.22.08.34.31.33.04.4,0,.87.66.65Zm-81.84-27.69c.22.19.4.36.6.5,3.69,2.72,7.64,4.98,11.91,6.68,11.98,4.75,24.17,5.42,36.53,1.72,24.91-7.46,41.02-31.16,38.76-57.07-1.51-17.38-9.83-30.9-24.08-40.65-11.42-7.8-24.23-10.54-37.96-8.8-2.8.35-5.66.7-8.33,1.4-6.78,1.77-12.9,5.1-18.33,9.54-12.25,10.01-19.24,22.95-20.46,38.7-1.36,17.6,4.41,32.63,17.45,44.7,1.32,1.22,2.41,3,4.67,2.77-.16.39-.52.21-.74.5Zm142.54-45.94c-.15,0-.31-.01-.46,0-3.69.37-7.36.12-11.01-.5-5.77-.97-11.41-.61-16.92,1.47-2.36.89-4.81,1.49-7.23,2.17-4.2,1.18-8.46,1.6-12.8,1.1-.36-.04-.61-.04-.63.43-.11,2.49-.38,4.96-.78,7.41-.07.41.06.58.47.61,1.85.13,3.69.5,5.55.25,3.61-.48,7.09-1.36,10.29-3.2,4.94-2.83,10.2-4.75,15.95-5.14,3.24-.22,6.42-.88,9.59-1.58,2.79-.61,5.48-1.54,7.97-3.03Zm-31.84-74.33c-.23.21-.48.41-.68.64-1.99,2.29-4.28,4.24-6.71,6.05-1.71,1.27-3.43,2.53-5.06,3.91-4.31,3.65-6.47,8.73-9.17,13.45-1.22,2.14-2.3,4.38-3.86,6.29-1.85,2.26-3.69,4.54-6.11,6.24-.45.32-.13.53.06.75,1.58,1.84,3.03,3.79,4.34,5.82.26.4.42.48.86.16,2.59-1.85,4.76-4.09,6.34-6.86.77-1.35,1.67-2.64,2.15-4.14.56-1.75,1.05-3.52,1.71-5.23,1.53-3.98,3.44-7.71,6.27-10.99,3.09-3.58,5.9-7.4,8.13-11.61.76-1.43,1.38-2.91,1.73-4.48Zm.11,152.34c-.02-.16-.01-.32-.06-.45-.71-1.87-1.56-3.68-2.56-5.4-1.7-2.94-3.66-5.7-5.8-8.34-1.63-2.01-3.38-3.93-4.68-6.19-1.33-2.31-2.42-4.72-3.33-7.22-.98-2.71-1.58-5.55-3.19-8.05-1.42-2.2-2.83-4.36-4.82-6.09-.56-.49-1.18-.81-1.86-1.08-.49-.19-.77-.15-1.08.32-1.19,1.82-2.51,3.55-3.92,5.2-.32.38-.4.6.06.97,4.58,3.79,7.7,8.68,10.44,13.88,1.26,2.39,2.51,4.78,4.03,7.04,1.92,2.86,4.41,5.15,7.15,7.14,3.26,2.37,6.46,4.81,9.09,7.9.13.15.23.38.54.37Zm22.47-119.62c-.39.26-.84.31-1.22.52-2.54,1.38-5.24,2.32-8.03,3.05-1.85.48-3.72.91-5.5,1.58-3.75,1.41-7.14,3.39-10.17,6.11-2.73,2.45-5.55,4.82-8.59,6.91-2.89,1.99-5.98,3.55-9.38,4.47-.51.14-.65.31-.46.83.42,1.15.78,2.33,1.14,3.5.12.39.28.65.72.76,1.41.35,2.74.92,4.05,1.54.57.27,1.07.22,1.65-.11.93-.52,1.84-1.07,2.74-1.64,2.72-1.72,4.95-3.96,6.83-6.5,1.78-2.41,3.95-4.41,6.19-6.34,1.52-1.31,3.28-2.3,5.06-3.28,4.11-2.24,8.08-4.71,11.65-7.78,1.25-1.07,2.4-2.22,3.31-3.62ZM164.81,10.74c0,.31-.03.62,0,.93.31,3.28.15,6.55-.42,9.78-1.06,6.08-.67,11.98,1.37,17.86,2.1,6.04,3.88,12.19,3.44,18.72-.03.49.25.58.63.6,2.36.14,4.69.49,7,.97.46.09.71,0,.75-.52.12-1.35.32-2.69.16-4.05-.44-3.75-1.36-7.33-3.26-10.66-2.52-4.41-4.4-9.07-4.9-14.17-.37-3.76-.91-7.49-1.74-11.18-.65-2.88-1.58-5.67-3.03-8.29Zm99.93,151.13c.07-.29,0-.4-.12-.53-1.17-1.27-2.47-2.4-3.74-3.57-2.28-2.12-4.94-3.66-7.49-5.34-2.28-1.5-4.82-2.58-7.08-4.13-2.37-1.63-4.39-3.64-6.32-5.74-1.37-1.49-2.59-3.11-3.89-4.67-1.01-1.21-2.35-2.04-3.54-3.04-.98-.83-2.01-1.1-3.31-.94-1.85.22-3.72.11-5.42-.83-.46-.25-.58-.1-.7.33-.38,1.36-.79,2.72-1.19,4.08-.13.45-.45.94-.36,1.34.12.54.79.28,1.21.43,5.53,1.98,10.18,5.36,14.56,9.17,2.08,1.81,4.13,3.69,6.46,5.19,3.02,1.94,6.34,3.24,9.82,4.08,3.86.94,7.58,2.18,11.12,4.17Zm-54.44,54.54c-.18-.38-.34-.77-.55-1.14-1.36-2.41-2.24-5.02-2.98-7.67-.7-2.49-1.23-5.03-2.28-7.41-.95-2.14-1.86-4.32-3.43-6.11-.73-.83-1.36-1.74-2.1-2.57-1.61-1.82-3.03-3.8-4.62-5.63-2.81-3.24-4.82-6.95-6.5-10.85-.22-.51-.43-.62-.91-.44-.88.33-1.75.8-2.66.94-2,.3-3.02,1.5-3.54,3.33-.1.37-.17.65,0,1.06,1.07,2.55,2.81,4.64,4.51,6.76,1.41,1.76,3.33,2.95,5.03,4.38,1.89,1.58,3.53,3.38,5.16,5.19,1.58,1.76,2.73,3.84,3.84,5.91,2.1,3.95,4.57,7.65,7.44,11.09,1.02,1.22,2.17,2.31,3.57,3.16ZM122.75,20.22c.18.38.33.77.54,1.13,1.37,2.41,2.24,5.02,2.98,7.67.7,2.49,1.23,5.04,2.28,7.42.95,2.14,1.88,4.3,3.42,6.12.76.89,1.46,1.82,2.2,2.72,1.47,1.81,2.84,3.7,4.43,5.41,2.92,3.15,4.76,6.93,6.55,10.75.27.58.43.65,1,.52,1.37-.31,2.51-1.17,3.81-1.56,1.06-.32,1.65-.82,1.99-1.83.24-.73.71-1.38.26-2.18-.36-.63-.67-1.29-1.07-1.9-.87-1.35-1.84-2.62-2.83-3.87-.98-1.23-2.11-2.28-3.36-3.21-1.51-1.12-2.99-2.28-4.27-3.66-1.39-1.49-2.86-2.91-4.06-4.59-.76-1.06-1.51-2.15-2.1-3.28-.83-1.57-1.57-3.24-2.56-4.69-1.8-2.63-3.4-5.42-5.64-7.74-1.11-1.15-2.13-2.38-3.57-3.23Zm45.38,205.81c.24-.41.13-.72.11-1.02-.31-3.25-.17-6.49.4-9.69,1.11-6.24.65-12.29-1.45-18.31-1.98-5.67-3.67-11.47-3.36-17.61.03-.58-.26-.65-.75-.68-1.73-.1-3.45-.27-5.18-.34-.83-.04-1.87-.73-2.42.02-.47.64-.29,1.71-.21,2.59.34,3.93,1.25,7.68,3.23,11.15,2.26,3.96,4,8.13,4.75,12.66.5,3.01.62,6.07,1.19,9.08.79,4.15,1.77,8.24,3.69,12.17ZM210.24,20.17c-1.52,1.11-2.71,2.5-3.96,3.85-2.15,2.32-3.7,5.05-5.44,7.64-.94,1.39-1.54,3-2.42,4.44-1.16,1.88-2.33,3.77-3.9,5.38-1.75,1.8-3.47,3.61-5.46,5.16-1.17.92-2.42,1.75-3.4,2.92-1.01,1.2-1.99,2.42-2.92,3.69-.49.66-.6,1.27-.53,2.05.16,1.67.13,3.34-.43,4.95-.12.35-.06.52.29.64,1.64.56,3.27,1.14,4.9,1.7.25.09.44.16.57-.22.48-1.36,1.09-2.65,1.81-3.91.92-1.61,1.68-3.31,2.77-4.84,1.26-1.77,2.72-3.36,4.06-5.06.95-1.21,1.87-2.45,2.89-3.59,1.6-1.79,3.12-3.64,4.17-5.83.81-1.68,1.65-3.34,2.17-5.13.53-1.83.96-3.7,1.49-5.52.84-2.86,1.89-5.66,3.33-8.32Zm-119.48,21.94c.2,1.16.72,2.17,1.19,3.17,1.89,3.98,4.45,7.55,7.19,10.99,1.65,2.07,3.44,4.03,4.78,6.34,1.29,2.22,2.36,4.55,3.24,6.96,1.02,2.8,1.63,5.72,3.28,8.31,1.39,2.18,2.82,4.29,4.76,6.02.47.42.72.4,1.09-.13,1.3-1.86,2.73-3.62,4.31-5.25.56-.58.5-.87-.05-1.4-2.75-2.64-5.11-5.59-6.99-8.93-2.01-3.57-3.76-7.29-6.06-10.69-1.95-2.88-4.47-5.16-7.24-7.18-3.08-2.25-6.11-4.53-8.62-7.43-.24-.27-.42-.62-.87-.76Zm.18,152.43c.33-.37.67-.74,1-1.11,1.77-2.03,3.8-3.77,5.95-5.36,2.78-2.05,5.56-4.08,7.9-6.67,2.03-2.25,3.35-4.93,4.84-7.52.67-1.17,1.38-2.32,1.98-3.52.99-1.98,2.09-3.9,3.37-5.71,1.26-1.78,2.79-3.32,4.31-4.88.34-.35.46-.58.08-1-1.61-1.77-3.07-3.67-4.41-5.66-.32-.47-.53-.56-1.01-.14-2.37,2.1-3.96,4.76-5.45,7.49-1.13,2.07-1.49,4.41-2.32,6.59-1.21,3.16-2.58,6.23-4.56,9.01-1.71,2.39-3.75,4.52-5.46,6.91-1.95,2.74-3.81,5.51-5.24,8.56-.44.95-.94,1.89-.97,3.01Zm-31.9-74.41c.31,0,.62.03.93,0,3.28-.31,6.55-.15,9.78.41,6.08,1.06,11.98.69,17.86-1.36,5.43-1.9,10.94-3.65,16.83-3.46.6.02.62-.35.65-.79.13-2.14.39-4.26.74-6.37.23-1.39.22-1.39-1.16-1.41-.35,0-.69-.02-1.04.02-3.76.37-7.38,1.19-10.71,3.08-4.61,2.61-9.44,4.63-14.78,5.15-3.1.3-6.18.74-9.24,1.33-3.44.67-6.72,1.77-9.86,3.41Zm9.32,41.69c.4-.21.81-.41,1.21-.62,2.56-1.34,5.25-2.31,8.05-3.01,1.73-.44,3.48-.85,5.16-1.46,3.59-1.3,6.92-3.09,9.83-5.62,2.2-1.91,4.43-3.79,6.67-5.65,2.67-2.23,5.66-3.93,8.85-5.29.56-.24.77-.45.52-1.07-.69-1.76-1.23-3.57-1.72-5.4-.31-1.15-1.66-1.66-2.75-1.16-1.47.67-2.78,1.59-4.04,2.55-1.11.85-2.27,1.67-3.2,2.76-1.94,2.28-3.68,4.74-5.89,6.79-1.63,1.51-3.23,3.03-5.11,4.2-1.96,1.22-4.08,2.17-6.02,3.4-2.98,1.89-6,3.75-8.59,6.18-1.09,1.02-2.26,1.99-2.97,3.39Zm54.44,54.63c1-.46,1.71-1.23,2.41-1.96,2.74-2.82,4.86-6.12,6.94-9.43.89-1.42,1.58-2.99,2.43-4.44,1.4-2.41,3.05-4.68,5.09-6.64,1.38-1.33,2.75-2.65,4.23-3.87,1.19-.99,2.52-1.83,3.53-3.06.98-1.19,1.95-2.37,2.87-3.61.5-.68.65-1.32.55-2.14-.15-1.16-.12-2.33.08-3.48.07-.42.08-.69-.44-.84-1.61-.44-3.2-.93-4.8-1.42-.34-.1-.69-.13-.79.24-.24.9-.79,1.63-1.22,2.43-.92,1.69-1.72,3.44-2.89,4.99-1.28,1.69-2.69,3.28-3.96,4.97-.92,1.23-1.97,2.34-2.94,3.52-1.56,1.91-3.16,3.78-4.21,6.03-.75,1.6-1.55,3.18-2.04,4.88-.52,1.84-.95,3.7-1.49,5.52-.84,2.86-1.89,5.66-3.35,8.3Zm-54.49-141.59c.42,1.02,1.24,1.72,1.98,2.44,2.86,2.79,6.23,4.92,9.58,7.05,1.36.86,2.88,1.52,4.28,2.32,1.97,1.12,3.92,2.35,5.52,4,1.36,1.4,2.86,2.64,4.06,4.22.94,1.24,1.9,2.49,2.96,3.63,1.4,1.5,3,2.78,4.75,3.88.37.23.66.5,1.15.42,1.28-.2,2.57-.22,3.86-.07.52.06.71-.14.86-.6.47-1.5.9-3.02,1.5-4.47.32-.77-.05-1.01-.57-1.2-4.91-1.77-8.76-5.13-12.69-8.38-2.08-1.72-4.03-3.61-6.32-5.07-3.02-1.94-6.34-3.23-9.81-4.08-3.85-.94-7.58-2.18-11.11-4.07Zm205.55,38.28c-1.06-.36-2.14-.66-3.18-1.08-3.07-1.22-6.1-2.54-9.19-3.7-3.35-1.25-6.81-1.76-10.38-1.12-2.35.42-4.7.86-7.06,1.24-4.9.79-9.82,1.05-14.76.3-1.85-.28-3.56-.96-5.23-1.73-.18.27-.1.49-.06.7.49,2.7.88,5.41.94,8.15.01.63.37.7.84.75,2.52.28,5.03.14,7.54-.11,4.04-.4,7.84-1.8,11.68-2.97,2.05-.62,4.08-1.28,6.2-1.64,4.45-.74,8.84-.19,13.22.67,3.12.61,6.26.86,9.45.51Zm-33.99-73.39c-.67.1-.98.5-1.39.67-3.04,1.24-6.1,2.44-9.14,3.71-3.25,1.36-6.33,3.01-8.72,5.68-1.38,1.54-2.49,3.29-3.67,4.98-2.81,4.04-5.97,7.79-9.69,11.03-1.89,1.64-3.92,3.11-6.33,3.91-.62.2-.45.37-.09.63,2.19,1.6,4.24,3.36,6.16,5.27.37.37.68.37,1.04.02.29-.28.63-.53.92-.81,2.69-2.7,5.41-5.37,7.19-8.83,1.09-2.1,2.41-4.08,3.51-6.18,1.82-3.47,3.9-6.68,6.9-9.3,2.54-2.22,5.37-4,8.07-5.98,1.86-1.37,3.66-2.81,5.23-4.78Zm-.18,157.03c-1.48-1.91-3.27-3.42-5.2-4.78-1.64-1.15-3.26-2.33-4.91-3.46-1.12-.77-2.06-1.75-3.12-2.57-2.08-1.59-3.62-3.66-4.94-5.84-2.09-3.43-3.89-7.03-5.9-10.51-1.87-3.23-4.55-5.79-7.21-8.36-.45-.43-.77-.45-1.24.02-1.78,1.79-3.65,3.48-5.67,4.99-.61.45-.5.72.11.91,1.12.34,2.12.93,3.04,1.59,4.99,3.59,8.9,8.22,12.41,13.2,1.84,2.6,3.48,5.36,6.21,7.19,1.66,1.12,3.33,2.2,5.2,2.95,2.51,1.01,5.01,2.03,7.53,3.02,1.25.5,2.47,1.06,3.69,1.64Zm-26.54-175.1c-.11.18-.23.35-.32.53-1.55,3.14-2.32,6.54-3.12,9.92-.75,3.19-1.65,6.29-3.24,9.19-1.25,2.28-2.84,4.27-4.54,6.22-1.93,2.23-3.78,4.55-5.53,6.92-2.06,2.8-3.63,5.89-4.98,9.09-.25.6-.12.97.49,1.29,1.32.67,2.6,1.41,3.89,2.13.25.14.52.39.78.23,1.26-.77,3.33-.68,3.2-2.95,0-.11.07-.23.09-.35.61-2.75,1.94-5.21,3.14-7.72,1.33-2.78,3-5.38,4.68-7.98,1.68-2.6,3.54-5.08,4.36-8.23.86-3.31.97-6.63,1-9.96.03-2.76,0-5.51.09-8.32Zm-51.59-10.97c-.14.26-.21.35-.24.46-.89,3.3-2.3,6.39-3.67,9.5-2.27,5.12-2.82,10.32-1.62,15.84,1.6,7.42,2.47,14.91.23,22.42.08.02.17.08.25.06,2.62-.39,5.26-.58,7.91-.55.66,0,.7-.38.7-.85.02-2.08-.01-4.16-.23-6.23-.43-4-1.65-7.83-2.99-11.58-2.18-6.16-2.43-12.36-1.1-18.69.71-3.36,1.04-6.76.76-10.38Zm51.77,204.39c-.41-3.51-.34-6.82-.29-10.13.05-3.11-.34-6.16-1.14-9.13-.45-1.67-1.38-3.21-2.39-4.66-1.3-1.85-2.54-3.74-3.73-5.64-1.68-2.69-3.04-5.57-4.37-8.45-.82-1.77-1.41-3.62-1.78-5.54-.1-.5-.2-.97-.77-1.17-.52-.18-1.06-.36-1.55-.61-.37-.19-.64-.12-.95.08-1.46.93-2.97,1.77-4.53,2.54-.43.21-.51.42-.31.87.76,1.66,1.51,3.31,2.4,4.91,1.34,2.43,2.98,4.6,4.68,6.77,1.52,1.92,3.1,3.8,4.66,5.67,2.85,3.41,4.72,7.24,5.84,11.52.85,3.24,1.46,6.55,2.6,9.71.39,1.07.77,2.17,1.61,3.25Zm-41.76,10.62c1.19-4.11,3.16-7.89,4.65-11.87,1.43-3.82,1.95-7.72,1.14-11.77-.68-3.36-1.34-6.73-1.61-10.16-.37-4.66-.52-9.31,1.02-13.84.24-.7-.21-.48-.53-.42-2.51.47-5.03.82-7.58.97-.51.03-.73.19-.72.72.04,2.42.02,4.85.43,7.25.64,3.73,1.78,7.34,3.01,10.91,1.93,5.57,2.19,11.21,1.07,16.95-.72,3.72-1.28,7.45-.88,11.26Zm91.65-153.84c-1.01.06-1.99.1-2.99.15-3.18.15-6.36.04-9.55.14-2.31.08-4.54.48-6.7,1.15-3.51,1.09-6.27,3.56-9.35,5.45-2.76,1.7-5.54,3.32-8.58,4.49-1.39.53-2.7,1.11-3.68,2.41-1.17,1.55-2.69,2.79-4.67,3.27-.49.12-.34.4-.19.71.62,1.2,1.26,2.4,1.81,3.63.25.56.59.67,1.09.51.83-.26,1.64-.56,2.43-.93,2.56-1.2,5.19-2.26,7.45-4.02,2.54-1.98,5.05-3.98,7.47-6.11,2-1.76,4.17-3.34,6.6-4.52,1.95-.95,4-1.63,6.1-2.22,2.94-.82,5.97-1.33,8.87-2.31,1.35-.46,2.68-.98,3.88-1.8ZM119.72,21.45c.41,3.58.35,6.89.29,10.2-.05,3.11.34,6.16,1.14,9.13.45,1.67,1.39,3.21,2.39,4.66,1.3,1.87,2.55,3.78,3.73,5.72,1.51,2.49,2.76,5.11,4,7.74.95,2,1.65,4.04,2.14,6.16.28,1.19,1.54,1.82,2.66,1.25,1.57-.8,3.13-1.63,4.75-2.32.74-.31.77-.74.47-1.25-.71-1.22-1.23-2.54-1.91-3.78-1.2-2.2-2.52-4.31-4.07-6.27-.91-1.16-1.85-2.29-2.79-3.42-1.34-1.61-2.77-3.14-4.01-4.82-2.2-3-3.67-6.35-4.6-9.97-.83-3.25-1.46-6.56-2.6-9.71-.39-1.07-.8-2.15-1.61-3.32Zm11.24,48.02c-.31-.54-.88-.54-1.29-.81-.41-.28-.88-.49-1.28-.78-4.97-3.62-8.89-8.23-12.4-13.21-1.86-2.63-3.52-5.4-6.27-7.26-1.61-1.08-3.24-2.13-5.03-2.88-2.89-1.21-5.8-2.39-8.72-3.52-.9-.35-1.72-.89-2.7-1.09.3.32.6.64.89.96,2.89,3.11,6.61,5.14,9.96,7.66,2.95,2.23,5.54,4.79,7.44,7.94,1.91,3.17,3.62,6.46,5.42,9.69,1.78,3.2,4.26,5.76,6.77,8.32.27.28.48.33.79.05,2.02-1.85,4.17-3.54,6.42-5.1Zm132.26,95.25c-.97-.66-2.02-1.15-3.11-1.5-2.08-.67-4.18-1.27-6.33-1.74-2.34-.51-4.64-1.16-6.9-2.01-2.46-.93-4.72-2.17-6.77-3.76-2.11-1.64-4.1-3.42-6.19-5.08-1.76-1.4-3.41-2.96-5.4-4.05-2.53-1.38-5.07-2.72-7.82-3.64-.64-.21-.83.03-1.05.5-.56,1.19-1.14,2.38-1.74,3.56-.21.41-.26.62.27.8,2.06.71,3.52,2.21,4.86,3.85.34.42.72.75,1.24.96,1.51.6,3.03,1.17,4.48,1.89,2.79,1.38,5.44,3.02,8.06,4.73,2.6,1.7,5.09,3.55,8.23,4.35,3.31.84,6.63.93,9.97.96,2.73.02,5.45-.03,8.2.17Zm-143.47,50.31c.51-.46.65-1,.87-1.48,1.32-2.88,1.99-5.96,2.71-9.02.76-3.25,1.71-6.41,3.31-9.37,1.12-2.08,2.54-3.95,4.05-5.71,1.66-1.94,3.27-3.93,4.9-5.9,2.2-2.65,3.84-5.65,5.28-8.77.16-.35.71-.84-.15-1.2-2.03-.85-3.98-1.88-5.89-2.98-.67-.39-1.13-.18-1.33.57-.14.51-.21,1.03-.32,1.54-.63,2.75-1.92,5.23-3.14,7.74-1.35,2.78-3,5.38-4.69,7.98-1.69,2.6-3.62,5.06-4.34,8.24-.55,2.41-.93,4.81-.97,7.27-.05,3.65.11,7.31-.3,11.08Zm10.4-47.43c-2.2-1.59-4.26-3.24-6.17-5.07-.36-.35-.54-.06-.77.15-1.3,1.24-2.48,2.59-3.66,3.94-1.59,1.82-2.64,3.98-3.82,6.05-1.16,2.03-2.3,4.07-3.41,6.13-1.36,2.53-3.05,4.83-5.16,6.75-1.94,1.77-4,3.42-6.24,4.81-1.65,1.03-3.18,2.23-4.7,3.42-1.08.85-2.03,1.86-3.02,3.03.69-.02.95-.44,1.35-.6,3.04-1.24,6.1-2.46,9.13-3.72,3.49-1.45,6.81-3.21,9.21-6.23,1.66-2.08,3.16-4.28,4.72-6.44,2.69-3.71,5.75-7.06,9.33-9.95,1-.81,2.16-1.38,3.2-2.29Zm-71.05-44.22c.19.12.26.2.34.22,3.53.97,6.82,2.56,10.19,3.95,4.03,1.65,8.14,2.62,12.52,1.81,1.21-.22,2.41-.44,3.62-.66,6.44-1.2,12.89-1.93,19.4-.57.63.13.54-.21.48-.56-.39-2.33-.58-4.68-.65-7.04-.02-.53-.2-.72-.73-.69-1.51.09-3.02.09-4.52.24-4.07.42-7.94,1.68-11.76,3.03-6.09,2.14-12.23,2.38-18.5,1.06-3.37-.71-6.77-1.05-10.38-.78Zm10.53-51.58c.32.24.44.37.6.45,1.55.78,3.2,1.31,4.85,1.84,2.34.74,4.76,1.16,7.13,1.78,2.91.77,5.71,1.81,8.29,3.33,1.95,1.15,3.66,2.65,5.39,4.12,1.96,1.65,4.02,3.19,5.96,4.85,2.47,2.11,5.42,3.32,8.3,4.68.39.18.62.12.83-.28.69-1.34,1.42-2.67,2.14-3.99.17-.32.24-.57-.15-.78-1.21-.67-2.04-1.75-2.92-2.77-.37-.44-.76-.8-1.31-1.02-1.48-.59-2.97-1.18-4.41-1.86-2.71-1.28-5.26-2.87-7.77-4.49-2.72-1.75-5.26-3.73-8.52-4.58-3.33-.88-6.68-.94-10.06-.97-2.7-.03-5.4.05-8.36-.29Zm.22,92.99c1.01-.07,2.01-.18,3.02-.2,3.18-.07,6.36-.14,9.55-.14,2.31,0,4.52-.54,6.7-1.16,2.33-.66,4.29-2.09,6.25-3.44,3.42-2.33,6.89-4.58,10.74-6.11,2.15-.86,4.09-1.88,5.49-3.78.29-.4.7-.74,1.12-1,.33-.21.35-.35.18-.66-.73-1.39-1.46-2.79-2.17-4.19-.15-.3-.32-.45-.66-.29-2.5,1.18-5.08,2.22-7.29,3.93-2.56,1.99-5.1,4.01-7.53,6.17-2,1.77-4.18,3.34-6.61,4.52-1.98.96-4.05,1.67-6.18,2.25-2.89.79-5.85,1.31-8.7,2.27-1.37.46-2.68,1.04-3.91,1.84Z" fill="#ffdeaa"/><path d="m165.13,124.59c.18-6.82,2.26-13.15,6.38-18.71,3.82-5.17,8.79-8.9,15.09-10.58,2.83-.76,5.74-.75,8.61-.1.7.16,1.74.18,1.72,1.14-.03,1.01-1.07.87-1.78.95-2.09.25-4.21.16-6.28.68-1.48.38-2.89.89-4.14,1.77-7.66,5.39-12.54,12.61-14.28,21.86-.29,1.54-.38,3.12-.53,4.69-.07.69-.1,1.38-.37,2.03-.36.87-.95,1.5-1.96,1.52-1,.02-1.65-.55-2.05-1.41-.55-1.19-.49-2.45-.39-3.83Z" fill="#ffdeaa"/><path d="m177.64,150.05c-2.08.06-4.17-.56-5.86-2.22-.22-.21-.39-.24-.66-.14-2.82,1-5.68.89-8.56.27-.68-.15-1.27-.03-1.89.29-2.53,1.3-5.2,2.21-8.05,2.56-.63.08-1.26.05-1.88-.09-.38-.08-.77-.18-.81-.65-.04-.48.35-.64.7-.77.53-.19,1.07-.37,1.62-.48,2.85-.58,5.43-1.8,7.86-3.33.97-.61,1.94-.88,3.04-.63,1.86.42,3.76.41,5.64.38,1.53-.02,2.96.04,4.36.78,2.25,1.2,4.79,1.48,7.24,2.03.49.11,1.09.12,1.13.78.04.7-.59.8-1.1.94-.83.23-1.68.2-2.78.27Z" fill="#ffdeaa"/><path d="m159.55,101.68c.01.44-.09.73-.42.88-.5.23-.92,0-1.31-.29-1.67-1.27-3.57-1.77-5.65-1.8-2.35-.03-4.65.34-6.92.84-1.99.43-4.01.8-5.88,1.68-.51.24-1.06.32-1.46-.19-.43-.54-.21-1.1.16-1.56.81-1.02,1.75-1.92,2.94-2.47,5.02-2.3,10.08-2.82,15.2-.29.79.39,1.57.81,2.24,1.39.58.51,1.02,1.11,1.11,1.81Z" fill="#ffdeaa"/><path d="m143.74,127.38c-.97-.06-2.3-.02-3.58-.45-.92-.31-1.63-.84-1.81-1.86-.19-1.04.26-1.84,1.03-2.49,2.21-1.87,7.55-2.35,9.98-.81.97.61,1.64,1.62,1.61,2.83-.04,1.17-.96,1.7-1.94,2.07-1.59.6-3.25.69-5.27.71Z" fill="#ffdeaa"/><path d="m188.97,128.23c-1.45-.04-2.89-.13-4.16-.97-1.63-1.08-1.73-2.94-.2-4.17.02-.02.05-.04.07-.06,2.04-1.56,7.91-1.41,9.85.26,1.39,1.2,1.27,2.79-.31,3.71-1.62.94-3.41,1.21-5.26,1.22Z" fill="#ffdeaa"/><path d="m183.24,108.76c1.53-.07,2.95-.15,4.36-.2.62-.03,1.24.04,1.47.75.22.7-.21,1.17-.75,1.47-1.63.92-3.36,1.4-5.25,1.05-.61-.11-1.13-.38-1.55-.84-.41-.45-.61-.96-.33-1.56.26-.56.75-.73,1.33-.72.28,0,.57.03.73.04Z" fill="#ffdeaa"/><path d="m163.38,152.83c1.85-.1,3.69.47,5.55.12.33-.06.64.05.73.43.08.33-.12.54-.38.69-2.14,1.17-4.37,1.95-6.86,1.47-.31-.06-.62-.14-.9-.28-.68-.32-1.35-.74-1.16-1.61.18-.83.94-.81,1.61-.83.47-.01.94,0,1.42,0Z" fill="#ffdeaa"/><path d="m145.4,107.07c1.5.15,3.01.22,4.52.23.53,0,1.04.08,1.22.67.19.58-.16.99-.6,1.26-1.9,1.16-3.88,1.37-5.94.44-.28-.13-.52-.35-.74-.57-.4-.4-.66-.86-.39-1.44.25-.54.73-.64,1.26-.62.22.01.44.02.66.04Z" fill="#ffdeaa"/></g><g><path d="m0,296.26c.5-3.6,2.85-6.1,6.1-6.1,4.45,0,7.05,2.35,10.75,2.35,1.7,0,3.05-.6,5.1-2.45l.2.15c-.5,3.6-2.85,6.1-6.1,6.1-4.45,0-7.15-2.35-10.75-2.35-1.7,0-3.05.6-5.1,2.45l-.2-.15Z" fill="#ffdeaa"/><path d="m56.85,288.96c0-4.15-.1-8.1-.25-11.3-.05-.7-.1-1.3-.1-1.8-3.2-.05-4.4-.05-5.2-.05-2.55,0-4.75.3-5.8.45,0,0-.15-1.1-.15-2,0-1,.2-2.15,1.15-2.15,0,0,16.8.25,21.85.25,2.45,0,4.6-.35,5.45-.5,0,0,.2,1.25.2,2.5,0,1.1-.4,1.65-.95,1.65,0,0-4.75-.05-10.25-.1-.05,4.05-.2,7.8-.2,11.7,0,6.55,0,13.1.85,19.75-1.25.2-2.3.5-3.35.5-1.75,0-3.25-.7-3.25-3.4v-15.5Z" fill="#ffdeaa"/><path d="m83.95,293.51c0-3-.2-13.5-.3-15.9-.25-4.85-.5-5.3-.5-5.3.85-.25,1.95-.45,2.75-.45,2.25,0,3.95,1.15,3.95,3.1s-.05,7.35-.1,12.3c1.95.15,5.05.2,8.05.2,3.45,0,7.25-.1,9.65-.2-.05-3.55-.15-6.85-.25-9.65-.2-4.85-.5-5.3-.5-5.3.85-.25,1.95-.45,2.75-.45,2.25,0,3.95,1.15,3.95,3.1,0,4.35-.2,8.45-.2,12.65,0,6.1.2,17.55.65,19.75-1.3.2-1.9.5-3.45.5-2.5,0-3.2-1.55-3.2-4.15,0-3.8.2-8.55.25-13.3-2.25-.15-5.55-.2-8.6-.2-3.25,0-6.8.1-9.15.2v5c0,2.8.2,5.85.2,9.05,0,2.7-1.5,3.4-3.25,3.4-1.05,0-2.1-.3-3.35-.5,0,0,.65-1.4.65-13.85Z" fill="#ffdeaa"/><path d="m127.8,293.51c0-3-.2-13.5-.3-15.9-.25-4.85-.5-5.25-.5-5.25h9.2c7.65,0,11.05-.5,11.05-.5-.3,2.45-.45,4.15-4.05,4.15-5.95,0-9.5-.8-9.5-.8,0,2.05-.05,7.35-.1,12.3h7.7c2.05,0,2.95-.5,2.95-.5-.1,2.35-.4,3.7-3,3.7s-7.7-.3-7.7-.3v5.2c0,2.7.15,5.4.2,8.45l9.15-.25c3.25-.1,5.45-.45,6.7-1.1.05.55.05,1,.05,1.4,0,3.2-1.1,3.5-4.75,3.5l-17.65-.25s.55-1.4.55-13.85Z" fill="#ffdeaa"/><path d="m175.1,300.31h.35s3.95,4.65,10.65,4.65c4.9,0,6.55-2.6,6.55-5.3,0-7.9-17.95-6.85-17.95-17.8,0-6.6,6.2-10.25,12.5-10.25,2.7,0,9.95,1,9.95,3.8,0,1.25-.8,2.9-1.95,4.05h-.35s-3.35-5.15-8.7-5.15c-3.4,0-5.85,2.4-5.85,5.6,0,7.8,17.95,6.1,17.95,17.6,0,6.95-6.55,10.6-12.85,10.6-4.25,0-11.5-1.7-11.5-4.85,0-.9.75-2.15,1.2-2.95Z" fill="#ffdeaa"/><path d="m209,272.31s1.85-.45,2.75-.45c2.25,0,3.95,1.15,3.95,3.1,0,3.5-.05,13.35-.05,17.55,0,8.15,3.55,12.6,9.3,12.6s9.25-4.45,9.25-12.6c0-7.35,0-14.3-.55-20.2,0,0,1.5-.45,2.25-.45,1.9,0,1.95,1.15,1.95,3.1,0,4.35-.4,12.7-.4,16.9,0,10.3-4.15,16.25-13.75,16.25-8.2,0-14.1-4.6-14.1-15.95,0-18.65-.6-19.4-.6-19.85Z" fill="#ffdeaa"/><path d="m251.6,293.51c0-3-.2-13.5-.3-15.9-.25-4.85-.5-5.25-.5-5.25.6-.2,1.5-.4,2.55-.4s2.1.1,2.6.85c1.35,2,3.2,4.45,5.3,6.95l9.7,11.7c2.55,3.1,4.5,5.6,5,6.65l.2-.2c-.2-3.95-.15-15.15-.4-20.3-.25-4.85-.5-5.3-.5-5.3,0,0,.85-.45,1.85-.45,2.15,0,2.3,1.05,2.3,2.85,0,6.05-.25,11.85-.25,19.7,0,5.6.05,11.15.45,12.95,0,0-1.1.3-2.45.3-.75,0-1.7-.35-2.35-1.35-1.25-1.95-3.2-4.45-5.5-7.2l-9.9-11.85c-2.6-3.15-4.5-5.6-4.75-6.55l-.2.2c0,7.8.45,15.3.45,23.5,0,2.7-.1,3.4-1.85,3.4-1.05,0-2.2-.5-2.2-.5,0,0,.75-1.35.75-13.8Z" fill="#ffdeaa"/><path d="m307,296.26c.5-3.6,2.85-6.1,6.1-6.1,4.45,0,7.05,2.35,10.75,2.35,1.7,0,3.05-.6,5.1-2.45l.2.15c-.5,3.6-2.85,6.1-6.1,6.1-4.45,0-7.15-2.35-10.75-2.35-1.7,0-3.05.6-5.1,2.45l-.2-.15Z" fill="#ffdeaa"/></g></g></svg>