<?xml version="1.0" encoding="UTF-8"?><svg id="b" xmlns="http://www.w3.org/2000/svg" width="946" height="482.89" viewBox="0 0 946 482.89"><g id="c"><g><path d="M176.14,120.99c-11.18,0-20.06,4.93-30.91,4.93-13.48,0-22.03-6.9-22.03-22.03s10.85-20.06,26.3-20.06c11.51,0,20.06,4.27,28.6,4.27v-30.58c-1.97,0-10.52-9.21-10.52-11.51v-6.58c0-10.85,8.55-15.45,17.43-20.06,1.97,0,24.33-12.82,33.21-17.43q3.95-1.97,8.88-1.97l-.66,83.51c10.85,7.23,49.32,10.19,49.32,15.45,0,7.23-41.43,23.34-48,32.22,0,2.3-.66,21.37-.66,25.32v4.6c0,17.75,4.27,48.66,28.6,48.66h6.58c-4.27-6.58-4.27-11.18-4.27-17.75,0-10.85,6.58-22.03,20.06-22.03,10.52,0,19.73,6.58,19.73,17.75,0,30.91-33.21,37.48-55.56,37.48h-17.43q-6.58-2.3-13.15-6.58c-31.89-19.73-33.54-51.95-33.54-86.14v-11.51h-1.97Z" fill="#fff"/><path d="M326.37,198.58l2.3-3.95V121.98c-1.32-3.95-11.51-6.58-12.49-13.81,0-5.92,10.19-11.51,10.19-11.51,2.3,0,15.45-6.58,17.1-6.58,11.18-4.27,32.55-25.64,42.74-25.64,6.58,0,6.58,8.22,6.58,12.82,0,19.4-8.55,36.17-8.55,55.56,0,5.92-.33,12.49-.33,19.07,0,14.14,.99,28.93,6.9,40.77,4.27,8.22,12.82,16.77,12.82,24.99q0,6.58-6.25,6.58c-15.12,0-27.95-1.97-42.74-1.97-11.18,0-21.7,1.97-34.19,1.97-3.95-.66-4.27-3.95-4.27-3.95,0-8.55,8.55-17.43,10.19-21.7Z" fill="#fff"/><path d="M553.08,136.77c0-8.88,0-16.11-4.27-24-5.92-10.85-12.17-12.82-23.34-12.82-16.77,0-21.7,7.89-32.88,18.08-1.97,2.63-10.52,11.18-10.52,11.18v48.99c0,15.12,15.12,25.65,15.12,34.19,0,6.25-2.3,12.82-8.88,12.82h-2.3c-8.22,0-44.38-2.3-53.26-2.3-1.64-1.97-3.62-4.27-3.62-8.22,0-8.88,10.19-17.1,12.49-30.25v-24.99c0-17.43,0-30.25-2.3-47.34-1.97-10.52-16.77-3.95-16.77-17.1,0-1.97-2.63-8.22,1.97-8.22s19.4-4.27,21.37-6.58c8.22-4.27,19.4-12.82,27.62-12.82,2.3,0,8.55,0,8.55,4.6v33.86l.99,.66c14.8-15.12,31.89-31.89,55.24-31.89,45.04,0,59.84,23.34,59.84,62.14,0,18.74-4.27,39.45-4.27,58.85,0,10.19,8.55,16.77,14.79,23.01v6.58s-6.25,2.3-10.52,2.3h-14.8c-25.64,0-34.52-6.58-34.52-34.19,0-19.07,4.27-37.81,4.27-56.55Z" fill="#fff"/><path d="M668.18,220.94c20.06,0,17.43,13.15,17.43,28.6h18.08c32.88-2.3,50.63-44.39,50.63-72.99-2.3,0-24.33,22.03-28.6,24.66-8.88,3.95-20.06,3.95-28.93,3.95-35.18,0-70.69-13.15-70.69-52.6,0-18.08,4.27-35.84,4.27-52.93,0-15.78-8.88-24.66-8.88-31.56v-1.97c6.58-1.97,11.18-1.97,15.78-1.97,28.93,0,44.39,13.15,44.39,41.76v8.88c0,4.6-6.9,33.21-6.9,37.81-2.63,19.73,13.48,39.45,35.51,39.45,15.45,0,41.75-17.43,41.75-35.51V88.11c0-17.43,35.18-37.15,50.63-37.15,0,13.15-3.94,24-3.94,39.45v77.59c-9.21,52.93-50.96,96.99-108.5,96.99-18.08,0-42.08-1.97-42.08-24.33,0-11.18,6.58-19.73,20.06-19.73Z" fill="#fff"/><path d="M21.7,433.57v-14.8c0-23.67-1.97-66.41-4.27-90.41-4.27,0-9.21-.66-13.48-2.63-1.97-1.64-3.94-6.25-3.94-8.22,0-12.49,21.7-28.93,36.49-42.08,2.3-1.64,8.88-10.52,14.79-10.52,2.63,0,4.6,4.28,4.6,6.25,0,4.27,1.97,21.04,1.97,25.64h2.3l4.27-4.6c14.79-16.77,32.22-24.99,53.59-24.99,46.69,0,74.63,24.99,74.63,72.33,0,40.44-30.25,76.61-71.02,76.61-21.04,0-42.41-8.55-59.18-21.37h-2.3v85.15s-1.32,2.96-4.27,2.96c-3.95-.33-12.82-4.6-13.81-5.92-6.58-4.27-21.7-7.23-27.62-11.18-4.93-1.97-9.86-6.58-9.86-10.85,0-4.93,12.16-12.49,17.1-21.37Zm85.15-47.34c25.97,0,42.74-19.07,42.74-42.41,0-27.62-12.49-48.99-38.14-48.99-29.59,0-53.59,27.62-53.59,57.54,0,23.34,32.22,33.87,48.99,33.87Z" fill="#fff"/><path d="M211.74,380.97c0-34.52,22.69-58.85,59.18-58.85,9.86,0,22.03,3.94,32.55,3.94v-1.97s-10.52-20.38-14.14-28.6c-3.95-5.92-10.52-22.03-16.77-22.03-5.92,0-7.89,18.08-28.28,18.08-11.18,.66-21.04-6.58-19.4-18.08,.66-15.12,26.3-21.37,39.12-20.38,24.99,0,42.74,7.56,57.87,26.3,9.53,11.84,16.11,30.25,23.34,44.71,12.16,23.67,20.71,49.32,30.91,66.08,6.25,12.16,14.47,24.66,24.66,32.55l8.22,3.94v2.3c0,9.86-12.49,9.86-20.38,9.86-20.38,0-39.78-15.78-47.34-27.95-6.9,7.56-10.52,11.84-20.71,18.08-14.47,10.19-25.32,12.82-41.75,12.82-38.14,0-67.07-25.32-67.07-60.82Zm79.24,38.47c18.41,0,33.86-6.9,44.06-21.04v-1.97c0-1.97-7.56-17.75-7.56-19.73-7.89-18.41-9.86-38.47-32.22-38.47s-46.69,14.14-46.69,38.8c0,25.97,16.11,42.41,42.41,42.41Z" fill="#fff"/><path d="M453.93,431.6c16.44,0,20.38,12.16,20.38,26.3h10.52c30.25-5.92,44.39-44.71,44.39-73.32-28.27,12.49-34.52,22.36-66.74,22.36-40.77,0-71.35-18.08-71.35-62.8s43.07-75.29,85.48-75.29c9.86,0,22.36,0,32.22,4.27,4.28,1.97,18.41,7.89,20.38,9.86l8.55,6.25h1.64c8.22-9.86,22.36-22.36,36.49-22.36,1.97,0,4.27,0,4.27,4.27v3.94c0,4.27-4.27,18.41-4.27,20.38v70.69c0,61.15-50.63,112.11-109.48,112.11-18.08,0-34.52-4.28-34.52-26.3,0-14.47,7.89-20.38,22.03-20.38Zm12.49-48.66h12.16c14.14,0,46.69-6.25,50.63-22.36,0-6.25,2.3-38.8,2.3-45.04v-1.64c0-16.77-32.55-28.6-46.69-28.6-26.63,0-48.99,28.6-48.99,52.6,0,20.38,12.49,36.82,30.58,45.04Z" fill="#fff"/><path d="M699.98,281.67c21.37,0,78.25,11.84,78.25,41.43,0,8.88-18.41,22.69-26.63,26.63-4.6,2.63-21.37,12.82-25.97,14.79-20.38,12.16-42.08,23.67-60.82,36.49,0,1.97-.99,1.97-.99,1.97,5.92,6.25,18.08,10.52,33.21,10.52,19.4,0,44.39-8.88,55.56-19.07,6.25-6.58,12.82-15.12,21.04-15.12,0,43.07-60.5,57.87-94.69,57.87-42.74,0-79.89-23.67-79.89-68.06,0-64.11,48-87.46,100.94-87.46Zm-43.4,112.77c19.07-19.4,38.47-40.11,57.54-59.51,2.3-1.97,12.49-15.12,12.49-16.77,0-13.15-29.59-21.7-38.14-21.7-31.89,0-44.71,33.86-44.71,61.48,0,8.88,3.94,30.25,12.82,36.49Z" fill="#fff"/><path d="M790.49,417.79c0-6.58,2.3-12.82,6.58-17.1,3.94-6.58,17.1-19.4,19.07-19.4h10.85c8.55,21.37,21.37,40.77,48.66,40.77,8.88,0,25.65-10.85,25.65-21.37,0-47.35-104.22-21.37-104.22-87.46,0-38.47,44.71-44.71,74.63-44.71,23.02,0,70.36,6.25,70.36,38.14,0,6.58,0,12.82-6.58,17.1h-10.52c-23.67,0-17.1-8.22-23.67-25.32-4.27-10.85-27.95-17.43-36.17-17.43-12.82,0-27.95,8.88-27.95,19.4v4.27c25.97,27.62,108.83,38.47,108.83,84.83,0,40.77-42.41,45.37-74.3,45.37-25.97,0-51.29-4.6-76.93-10.85-4.27-1.97-4.27-4.28-4.27-6.25Z" fill="#fff"/></g><g><path d="M355.57,35.55c.33,.36,.65,.71,.98,1.07,.33,.25,.43,.5,.31,.74-.12,.23-.23,.35-.35,.35-1.29,1.27,1.69,.88,.78,2.01-.85,1.58-3.14,.6-3.91,2.24,.76,.45,1.43,.93,1.28,1.92-.28,.36-.75,.54-1.04,.92,.43,.05,.84-.05,1.22-.22,.75-.32,1.5-.47,2.3-.23,.42,.2,.7,.53,.84,.97-1.04,2.64,1.56,2.39,2.66,3.34,.24,.43,.29,.87,.15,1.33-.88,1.56-2.33,1.43-3.8,1.29-1.27-.1-2.53-.27-3.68-.87,.33,.8,1.74,1.02,1.37,2.27-2.4,2.41-4.77,1.51-7.14-.05-.87-.82-.76-1.95-.96-2.98-.05-5.11-2.03-10.12-.84-15.31,1.56-.58,2.94-.05,4.28,.7,.79,.41,.28,3.05,2.39,1.3,.82-.68,1.9-1.38,3.16-.8Z" fill="#fff"/><path d="M353.43,57.06c-.34,.33-.69,.66-1.03,.99-1.07,1.2-2.41,1.67-4,1.44-.74-.3-1.29-.81-1.67-1.51-.42-.99-.48-2.01-.18-3.04,.18-.5,.48-.9,.92-1.2,1.99-.14,3.94,.55,5.93,.28,2.31-.4,4.8,.1,6.89-1.4,.47-.16,.94-.15,1.41,0,.9,.38,1.8,.8,2.71,1.14,.68,.26,1.94-.2,1.82,1.02-.11,1.15-1.22,1.39-2.26,1.43-1.61,.58-3.29,.25-4.93,.34-1.88,.04-3.75,.27-5.61,.51Z" fill="#fff"/><path d="M357.48,45.84c0-.38-.02-.77-.03-1.15-.85-.81-2.4,.33-3.03-1.09-.86-.99-2.09-.74-3.18-.95,1.47-3.63,5.49-.46,7.44-2.79,1.2-.34,2.2-.1,2.92,.98,0,.19,0,.37-.01,.56-.07,.54-.24,1.06-.28,1.59,.49,1.15,2.13,.83,2.58,2.01-1.55,1.3-3.44,.65-5.17,.92-.43,.32-.84,.27-1.23-.08Z" fill="#fff"/><path d="M353.41,26.09c.25,.02,.5,.06,.75,.13,.44-.24,.89-.24,1.34-.04,.34,.34,.58,.73,.72,1.2,.07,.47,.04,.93-.05,1.39-.69,1.46-1.59,2.79-2.52,4.11-.4,.28-.84,.46-1.31,.56-.75,.08-1.45-.04-2.12-.38-1.06-.74-1.61-1.74-1.6-3.04,.09-.94,.57-1.64,1.34-2.14,.48-.33,.99-.64,1.44-1.01,.27-.26,.57-.49,.89-.7,.37-.09,.74-.12,1.12-.07Z" fill="#fff"/><path d="M352.42,32.8c.28-.14,.57-.23,.88-.29,.27-.29,.6-.43,1-.39,.56,.15,1.06,.43,1.53,.75,.14,.12,.28,.25,.43,.38,.08,.17,.15,.35,.23,.52-.3,.59-.61,1.19-.91,1.78-1.28,.8-2.6,1.55-3.83,2.43-1,.71-1.98,.85-2.57-.26-.71-1.32,1.37-1.13,1.42-2.15,.01-1.32,.97-2.02,1.83-2.78Z" fill="#fff"/><path d="M348.39,59.19c1.2-.86,2.55-1.18,4.01-1.14,.36,.85,.72,1.71,1.09,2.56-.46,1.63,1.12,3.26-.01,4.89-2.63,.92-3.54-1.06-4.64-2.74-.5-1.15-1.11-2.28-.45-3.58Z" fill="#fff"/><path d="M338.38,71.24c-1.32-2.69-2.24-.52-3.27,.27-1.95-.07-1.8-1.5-1.81-2.81,.36-1.5,.74-2.99,2.24-3.83,1.74-.36,2.7,.84,3.76,1.86,.3,.39,.52,.82,.68,1.28,.11,.47,.15,.95,.13,1.44-.23,.93-.37,1.94-1.72,1.8Z" fill="#fff"/><path d="M347.19,70.06c0,1.17,0,2.35,0,3.52-1.93,.86-2.63-.64-3.49-1.83-.76-1.52-1.59-3-2.08-4.65-.11-.76,0-1.46,.48-2.08,1.65-.87,2.74-.01,3.74,1.18,.87,1.13,1.14,2.48,1.35,3.85Z" fill="#fff"/><path d="M346.37,22.68c.67-.08,1.34-.16,2.01-.24,.11,.18,.22,.36,.34,.54,0,.21,.01,.43,.02,.64-.04,.21-.09,.42-.12,.64-.1,.43-.23,.84-.38,1.26-.24,.65-.59,1.21-1.18,1.61-1.48,.72-2.96,1.38-4.67,.83-.84-.49-1.26-1.27-1.53-2.16,.13-1.19,.01-2.41,.32-3.59,.53-.37,1.12-.44,1.74-.29,.38,.17,.72,.4,1.03,.68,.79,.68,1.6,.37,2.42,.09Z" fill="#fff"/><path d="M353.6,22.76c-.25,.92-.51,1.84-.76,2.75,.02,.39-.1,.72-.4,.98l.08,.03c-.51,.46-.8,1.19-1.58,1.33-1.85-.25-3.27-.92-3.06-3.16,.02-.49,.16-.94,.42-1.35l-.04,.09c.36-.33,.66-.71,.88-1.16,.19-.15,.39-.3,.58-.45,.46-.2,.94-.32,1.44-.37,1.01,.06,2.03,.12,2.45,1.3Z" fill="#fff"/><path d="M303.57,58.97c-1.31,.18-3.05,.73-3.7-.51-.79-1.51,1.02-2.09,2.02-2.9,.63-.51,1.07-1.24,1.6-1.87,.42-.13,.84-.12,1.27,.02,.77,.49,1.23,1.2,1.42,2.09,.03,.43-.02,.85-.16,1.26-.48,1.06-1.58,1.33-2.44,1.91Z" fill="#fff"/><path d="M358.68,39.85c.45,1.46,.06,2.12-1.61,2.09-1.96-.03-4-.46-5.83,.7-.97-.26-2.4-.86-.69-1.6,2.05-.89,4.48-.92,6.74-1.33,.46,.05,.93,.1,1.39,.14Z" fill="#fff"/><path d="M303.57,58.97c.68-.64,1.35-1.28,2.03-1.92,.38-.31,.82-.46,1.31-.44,1.89,.34,3.87,.49,5.11,2.28,.65,1.52,.15,2.84-.74,4.09-.34,.36-.77,.55-1.27,.61-.78-.16-1.26-.64-1.44-1.41-.67-.61,2.62-2.39-.73-2.31-1.42,.03-2.85-.57-4.28-.89Z" fill="#fff"/><path d="M304.53,54.02c-.35-.11-.7-.21-1.04-.32,.67-.8,1.34-1.6,2.01-2.41,.22-.46,.51-.88,.87-1.26,2.33-1.23,4.99-3.33,4.82,1.88-.49,.99-1.31,1.59-2.28,2.04-1.45,.5-2.9,1.21-4.37,.07Z" fill="#fff"/><path d="M330.12,76.44c-.41-.93-.83-1.86-1.24-2.79-.29-.37-.48-.78-.57-1.24,0-.47,.09-.92,.26-1.35,.89-1.33,1.26-3,2.58-4.06,.5-.07,.93,.06,1.31,.39,.44,.62,.56,1.34,.59,2.08,0,1.48,.37,2.96-.12,4.43-.29,.97-.75,1.85-1.48,2.56-.44,.31-.89,.29-1.32-.02Z" fill="#fff"/><path d="M347.19,70.06c-.58-.96-1.17-1.93-1.75-2.89,.29-1.55-.62-3.49,1.46-4.45,.48-.11,.96-.1,1.44,.03,1.08,.72,1.76,1.65,1.58,3.02-.21,.77-.97,1.01-1.47,1.5-.42,.93-.84,1.86-1.27,2.79Z" fill="#fff"/><path d="M349.28,66.46c-.34-1.16-.68-2.32-1.03-3.48-.19-.43-.1-.81,.23-1.15,.44-.2,.81-.11,1.13,.25,1.04,1.23,1.39,3.32,3.7,2.97,2.77,1.86,.73,2.45-.84,3.17-1.06-.31-2.12-.62-3.18-.93l-.29-.41,.28-.42Z" fill="#fff"/><path d="M331.96,74.41c.07-1.68,.14-3.37,.21-5.05,.65-.76,.12-2.52,1.94-2.31,.27,.24,.38,.49,.33,.76-.05,.28-.11,.42-.19,.42-.05,1.18-.53,2.47,.87,3.27-.33,.8-.65,1.59-.98,2.39-.3,.76-.6,1.61-1.59,1.59-.59-.01-.65-.57-.57-1.07Z" fill="#fff"/><path d="M306.58,50.76c-.36,.18-.72,.35-1.08,.53-2.26-3.32-5.04-.83-7.66-.55,.4-2.25,3.4-1.7,3.73-3.82,.4-.32,.84-.41,1.34-.29,1.36,1.25,4.77,.69,3.67,4.13Z" fill="#fff"/><path d="M344.28,71.35c1.1,.58,1.44,2.13,2.91,2.23,.26,1.69,.89,3.87-2.11,2.12-1.23-.72-2.56-1.61-2.86-3.26-.34-.44-.34-.88,0-1.33,.74-.38,1.44-.37,2.07,.23Z" fill="#fff"/><path d="M297.38,45.87c-.4-1.3-2.7-.41-2.54-1.82,.15-1.32,1.68-1.27,2.87-1.34,.99-.05,1.97-.29,2.95-.44,.31,.34,.51,.73,.63,1.17,.06,.45,.04,.89-.05,1.34-.17,.42-.44,.77-.79,1.06-1.02,.01-2.04,.02-3.06,.03Z" fill="#fff"/><path d="M316.64,70.4c-2.16-1.09-1.94-3.1-1.93-5.03,.18-.19,.35-.38,.53-.57,2.48-.74,3.33,.58,3.52,2.76-.01,.52-.13,1.03-.33,1.51-.39,.72-.96,1.2-1.79,1.32Z" fill="#fff"/><path d="M343.15,22.43c-.56,0-1.11,0-1.67,0-1.89-1.29-1.12-3.01-.77-4.66,.21-.7,.5-1.37,.93-1.97,.18-.16,.37-.31,.56-.47,1.54-.22,2.03,.63,2.05,1.98-.18,1.74,.64,3.7-1.1,5.11Z" fill="#fff"/><path d="M352.46,68.22c.78-.92,2.09-1.71,.84-3.17,.15-1.48-1.32-3.03,.19-4.45,1.81,1.92,.65,5.11,2.93,6.84-.42,2.34-1.86,1.15-3.03,.88-.31,.03-.62,0-.92-.1Z" fill="#fff"/><path d="M320.87,73.65c.16,.21,.17,.43,.04,.66-1.17,1.81-2.32,1.57-3.47-.02-.3-1.57-.24-3.05,1.05-4.23,.48-.25,.99-.33,1.52-.26,.82,.26,1.31,.83,1.53,1.65,.11,.84-.18,1.55-.68,2.2Z" fill="#fff"/><path d="M327.74,11.17c.97-1.55,.76-3.63,2.25-4.94,.69,.98,1.38,1.96,2.07,2.94-.44,2.82-2.04,3.12-4.31,2Z" fill="#fff"/><path d="M357.48,45.84c.41,.03,.82,.05,1.23,.08,.53,1.51,3.67,.42,3.06,3.07-.31,.23-.62,.24-.94,0-1.57-.57-5.05,.89-3.35-3.15Z" fill="#fff"/><path d="M353.6,22.76c-1.03-.11-2.05-.23-3.08-.34-.41-.25-.56-.61-.46-1.09,.63-1.57,2.42-1.83,3.41-3,.23-.15,.46-.17,.71-.05,1.87-.22,1.95,.7,1.32,2.08-.63,.8-1.26,1.59-1.89,2.39Z" fill="#fff"/><path d="M353.46,18.33c.07,2.04-1.77,2.21-2.96,3.02-.33,.43-.76,.74-1.2,1.04l.07-.05c-.32,.38-.67,.41-1.05,.07,0,0,.07,.03,.07,.03-.38-3.92,2.63-3.67,5.08-4.11Z" fill="#fff"/><path d="M340.06,12.91c.84-1.28,2.15-2.7,3.45-1.52,1.86,1.68-1.23,2.47-1.32,3.95,0,0,.08-.09,.08-.09-.34,.37-.77,.55-1.27,.54-.48-.15-.87-.42-1.17-.81-.32-.73-.21-1.41,.23-2.06Z" fill="#fff"/><path d="M327.74,11.17c1.74,0,3.21-.61,4.31-2,.69,.53,1.04,1.2,.9,2.09-.28,.29-.54,.61-.77,.95-.44,.94-1.02,1.77-1.96,2.28-1.07,.39-1.65-.82-2.61-.79-.39-.06-.71-.23-.98-.51-.17-.37-.12-.73,.1-1.06,.33-.32,.67-.64,1-.96Z" fill="#fff"/><path d="M359.6,31.76c-.44,1.6-1.45,2.31-3.11,2.01,0,0,.03-.13,.03-.13-.33-.34-.57-.74-.71-1.21-.11-1.94,1.17-3.03,2.48-4.11,.46-.17,.93-.18,1.4-.03,1.79,1.2,1.17,2.34-.09,3.47Z" fill="#fff"/><path d="M340.06,12.91c.06,.75,.11,1.5,.17,2.26-.04,.22-.08,.44-.12,.66-.23,.39-.54,.72-.92,.98-.62,.31-1.28,.45-1.96,.47-.45,0-.9-.06-1.34-.19-.43-.17-.78-.45-1.04-.83,.5-3.03,3.67-1.92,5.21-3.35Z" fill="#fff"/><path d="M343.15,22.43c.27-1.73-.49-3.67,1.1-5.11,1.97,1.3,.68,3.32,1.11,4.96-.39,.84-.81,1.62-1.95,.99-.04-.3-.12-.57-.26-.84Z" fill="#fff"/><path d="M329.08,70.99c-.05,.45-.11,.9-.16,1.35-.66,.61-1.33,.64-2.01,.04-.66-.67-1.32-1.34-1.98-2.01-.29-.4-.35-.83-.21-1.3,1.09-1.45,2.38-1.26,3.75-.46,.78,.65,1.33,1.36,.6,2.38Z" fill="#fff"/><path d="M363.89,45c-1.31-.08-2.82,.22-3.89-.33-2.04-1.06-.67-1.55,.6-1.85,1.34-.34,2.74,.18,4.07-.3,1.03-.05,1.78,.32,2.12,1.35-.74,.96-1.81,1.07-2.9,1.13Z" fill="#fff"/><path d="M356.51,37.7c.01-.36,.03-.72,.04-1.08,1.82-.99,3.64-1.38,6.01,.06-2.15,1.61-4.2,.78-6.05,1.03Z" fill="#fff"/><path d="M309.62,63.2c.3,0,.59-.01,.89-.02,.36,.17,.63,.43,.81,.79,.15,.36,.25,.74,.3,1.12,.02,.39,.05,.77,.07,1.16,.05,2.08-1.53,2.11-2.95,2.33-.71-.5-.94-1.23-.98-2.06,.12-1.39,.69-2.53,1.87-3.33Z" fill="#fff"/><path d="M359.6,31.76c.51-1.09,.69-2.17,0-3.26,.21-.39,.53-.66,.93-.83,1.27-.3,2.87-.17,2.75,1.24-.16,1.78-1.8,2.72-3.68,2.84Z" fill="#fff"/><path d="M308.62,66.18c.04,.8,.07,1.6,.11,2.41-.87,.65-2.07,1.82-2.83,1.05-.88-.89-.51-2.42,.67-3.38,.66-.6,1.34-.64,2.05-.08Z" fill="#fff"/><path d="M342.24,71.35c0,.36-.02,.73-.03,1.09-1.35-.16-3.57,2.42-3.83-1.2,.26-.65,.52-1.29,.78-1.94,1.79-.46,3.11-.22,3.08,2.05Z" fill="#fff"/><path d="M361.7,52.63c-.43,.08-.86,.16-1.29,.25-1.22,1.46-2.43,.89-3.65,0-.32-.35-.51-.77-.6-1.23,.08-.79,.62-1.19,1.28-1.48,1.08,.3,2.19,.98,3.18-.21,.15,.14,.3,.29,.45,.43,.08,.6,.09,1.24,.58,1.7,.07,.18,.08,.36,.05,.55Z" fill="#fff"/><path d="M366.79,43.87c-.71-.35-1.41-.71-2.12-1.06-1.66,.52-3.63,1.59-3.07-1.76,0,0,0-.21,0-.21,1.92,.4,3.98,.49,5.73,1.27,1.68,.75,.34,1.36-.55,1.76Z" fill="#fff"/><path d="M308.62,66.18c-.68,.03-1.37,.05-2.05,.08,0-1.69,.83-2.97,2.01-4.09,.35,.34,.69,.69,1.04,1.03-.33,.99-.67,1.99-1,2.98Z" fill="#fff"/><path d="M355.49,20.36c-.06-.93-.26-1.78-1.32-2.08,.81-.84,1.72-2.58,2.84-1.25,.91,1.08,.12,2.71-1.52,3.33Z" fill="#fff"/><path d="M334.86,16.26c.43,.02,.87,.03,1.3,.05,1.18,2.55-.79,3.01-2.45,3.67-.52,.06-1.02-.02-1.5-.24-.42-.33-.66-.77-.72-1.31,.01-.53,.2-1,.56-1.39,.51-.29,.96-.22,1.35,.22,.48-.34,.97-.68,1.45-1.01Z" fill="#fff"/><path d="M318.87,70.26c-.77,1.3-1.23,2.68-1.1,4.21,.3,.27,.39,.53,.27,.78-.12,.24-.23,.36-.34,.36-1.65-1.47-.7-3.47-1.06-5.2,.4-.4,.8-.8,1.2-1.19,.82-.12,1.17,.22,1.03,1.05Z" fill="#fff"/><path d="M324.89,69.3c.02,.36,.03,.71,.05,1.07-.87,1.7-1.76,3.37-4.06,3.28-.02-.85-.03-1.7-.05-2.55,.71-.96,1.65-1.61,2.75-2.05,.47-.1,.91-.02,1.31,.25Z" fill="#fff"/><path d="M331.96,74.41c1.02,1.08,1.47-.25,2.17-.51,.27,1.72,.05,3.33-.97,4.78-.88-.59-1.47-1.44-2.11-2.25,.02-.8,.14-1.56,.91-2.03Z" fill="#fff"/><path d="M317.69,75.6c.02-.38,.05-.76,.07-1.14,1.08,.63,2.13,.53,3.15-.15,0,1.44-.37,2.75-1.96,3.01-1.16,.19-1.13-.92-1.26-1.72Z" fill="#fff"/><path d="M326.91,72.38c.67-.01,1.34-.02,2.01-.04-.02,.43-.03,.87-.05,1.3-1.39,.6-.53,2.72-2.55,3.26,.21-1.58,.4-3.05,.59-4.53Z" fill="#fff"/><path d="M300.44,45.84c.02-.29,.04-.59,.04-.89,1.32-1.38,2.87-1.45,4.54-.76,1.64,1.64,.11,2.22-.98,2.96-.54,.17-1.05,.09-1.52-.23-.32,0-.63,0-.95-.01-.38-.36-.75-.72-1.13-1.08Z" fill="#fff"/><path d="M353.43,57.06c1.37-1.78,3.26-.71,4.93-.89,.44,.11,.57,.36,.35,.77-1.75,.31-3.48,1.68-5.28,.13Z" fill="#fff"/><path d="M355.21,26.58c-.35-.12-.7-.24-1.05-.36,1.56-2.41,3.37-2.59,5.43-.61-1.37,.74-2.78,1.28-4.38,.97Z" fill="#fff"/><path d="M355.21,26.58c1.2-1.48,2.85-.96,4.38-.97-.34,.59-.67,1.18-1.01,1.76-1,1-2.02,.99-3.06,.05-.01-.31-.12-.59-.31-.84Z" fill="#fff"/><path d="M364.87,36.74c.54,.28,1.17,.38,1.29,.69,.31,.77-.28,1.17-.96,1.13-.37-.02-.87-.4-1-.74-.08-.23,.39-.66,.66-1.08Z" fill="#fff"/><path d="M361.13,61.64c.11,.97-.31,1.28-.8,1.12-.57-.18-1.1-.58-1.54-.99-.08-.08,.44-1,.47-.98,.69,.26,1.36,.6,1.86,.85Z" fill="#fff"/><path d="M333.4,17.27c-.41,0-.82,0-1.23,0-2.02-1.93-.69-3.99-.24-6.02,.34,0,.69,.01,1.03,.02,.15,2,.3,4,.45,6Z" fill="#fff"/><path d="M331.05,76.44c1.47,.03,1.99,.95,2.1,2.25-2.07,.67-2.35-1.06-3.04-2.25,.31,0,.62,0,.94,0Z" fill="#fff"/><path d="M353.38,68.33c1.04-.18,2.26,.22,3.03-.88,.47,.4,1.2,.73,1.35,1.23,.19,.65-.58,.65-1.05,.62-1.18-.07-2.39-.04-3.32-.97Z" fill="#fff"/><path d="M355.53,27.42c1.02-.02,2.04-.03,3.06-.05,.65,.1,1.3,.2,1.95,.3-.31,.28-.62,.55-.93,.83-.36,.02-.72,.05-1.07,.07-1.03,.77-2.04,.85-3.03-.07,.01-.36,.02-.73,.04-1.09Z" fill="#fff"/><path d="M358.71,56.93c-.09-.27-.21-.52-.35-.77,1.87,.02,3.74,.03,5.61,.05-1.61,1.27-3.49,.6-5.26,.72Z" fill="#fff"/><path d="M343.41,23.27c.65-.33,1.3-.66,1.95-.99,.34,.13,.68,.26,1.02,.39-.8,.7-1.51,1.65-2.45,2-.58,.22-.58-.82-.52-1.41Z" fill="#fff"/><path d="M360.84,48.99c.31-.02,.62-.02,.94,0,.44,.44,.88,.89,1.32,1.33-.4,.21-.8,.42-1.21,.63-.81,.1-.89-.69-1.3-1.07,0,0,.04,.06,.04,.06,.08-.32,.15-.63,.22-.95Z" fill="#fff"/><path d="M311.69,66.25c-.35-.34-.7-.69-1.04-1.03,.27-.27,.48-.59,.62-.94,.15-.12,.3-.24,.44-.36,.4-.03,.75,.07,1.06,.32,.24,.34,.25,.68,.03,1.03-.37,.33-.74,.66-1.11,.98Z" fill="#fff"/><path d="M360.58,49.89c.43,.36,.87,.71,1.3,1.07-.08,.37-.16,.74-.23,1.12-1.32-.26-1.14-1.25-1.07-2.19Z" fill="#fff"/><path d="M314.7,65.38c-.29-.09-.59-.16-.9-.19-.25-.14-.37-.31-.36-.52,.02-.23,.06-.34,.13-.34,.28-.26,.6-.37,.98-.35,.23,.15,.34,.34,.33,.55-.01,.23-.05,.34-.11,.34l-.07,.5Z" fill="#fff"/><path d="M313.66,64.17c.05,.34,.09,.68,.14,1.01-.33,.03-.67,.06-1,.08-.03-.34-.06-.68-.09-1.02,0,0,.25-.31,.25-.31,0,0,.4-.02,.4-.02,0,0,.3,.25,.3,.25Z" fill="#fff"/><path d="M349.28,66.46c.04,.28,.04,.55,.01,.83-.28-.02-.55-.03-.83-.03-.16-.71,.24-.85,.82-.81Z" fill="#fff"/><path d="M352.43,26.49c.13-.33,.26-.66,.4-.98,.25,.14,.45,.33,.58,.58-.33,.13-.65,.27-.98,.4Z" fill="#fff"/><path d="M302.52,46.93c.4-.08,.79-.15,1.19-.23,1.28-.67,3-.23,3.94-1.63-.5-.33-.95-.66-1.31-1.11-.14-.38-.16-.76-.07-1.14,.04-1.85-1.87-.66-2.45-1.54-.15-.16-.3-.32-.44-.48l.09-1.98c-.58-.76-.5-1.54-.1-2.33,1.19-.99,2.55-.96,3.96-.7,2.26,.77,4.67,1.18,6.62,2.71,1.09,3.4,.14,6.97,.82,10.41-.16,1.53-1.02,2.66-2.09,3.68-.34,.31-.74,.54-1.18,.69-.68-.16-1.3-.38-.86-1.3,.32-5.95-2.82-.43-4.06-1.22-.17-2.53-3.64-1.56-4.06-3.83Z" fill="#fff"/><path d="M311.69,21.33c.37-.29,.75-.59,1.12-.88,.23-.37,.55-.64,.95-.81,.41-.12,.84-.18,1.27-.18,.65,.02,1.26,.16,1.85,.43,.91,.52,1.72,1.2,2.61,1.75,.73,.49,1.4,1.04,1.71,1.91,.03,1.35,.43,2.66,.57,4,0,.48-.08,.94-.22,1.4-.56,1.16-1.3,2.05-2.76,1.83-.37-.31-.65-.69-.86-1.13-.53-3.8-5.12-3.86-6.41-6.97-.13-.48-.07-.93,.17-1.36Z" fill="#fff"/><path d="M317.65,12.2c1.47,1.67,2.93,3.33,4.4,5-.13,.77-.59,1.29-1.25,1.67-.68,.28-1.38,.34-2.1,.18-1.49-.47-1.97-1.89-2.82-2.97-.42-.59-.69-1.23-.7-1.97,.29-1.32,.94-2.19,2.46-1.91Z" fill="#fff"/><path d="M308.65,27.51c-1.97-1.6-2.72-3.51-1.44-5.9,.24-.65,.78-.82,1.39-.88,.39,.06,.76,.18,1.11,.35,.29,.26,.53,.56,.71,.91,.26,.52,.5,1.04,.7,1.59,.12,.37,.17,.76,.17,1.15-.04,.39-.13,.77-.28,1.14-.33,.72-.69,1.43-1.34,1.93-.41,.15-.75,.05-1.03-.28Z" fill="#fff"/><path d="M301.47,34.71c-.17,.02-.36,.11-.49,.05-1.69-.8-5.04-.48-4.6-2.8,.58-3.04,3.38,.6,5.03-.57,1.02,1.09,.88,2.2,.06,3.32Z" fill="#fff"/><path d="M301.47,34.71c-.02-1.11-.04-2.22-.06-3.32,1.13-1.35,2.18-.71,3.23,.13-.31,.73,.41,.94,.71,1.36,.49,.76,.77,1.51-.04,2.24-.61,.33-1.26,.42-1.94,.27-.41-.19-.82-.39-1.21-.61l-.35,.04-.34-.1Z" fill="#fff"/><path d="M313.78,20.3c-.32,.08-.65,.12-.98,.15-1.4-1.87-1.19-4.03-1.13-6.16,3.65,.65,3.91,1.37,2.12,6.02Z" fill="#fff"/><path d="M302.16,34.78c.54,0,1.07,.01,1.61,.02,.4,.63,.32,1.21-.2,1.73-.03,.77-.06,1.53-.09,2.3-2.24-.31-4.77,.75-6.71-1.45,1.6-1.32,5.98,3.02,5.4-2.59Z" fill="#fff"/><path d="M306.86,42.98c-.11,.28-.24,.54-.41,.79-2,.82-3.99,.99-5.95-.12,.05-.46,.1-.92,.15-1.38,.55-1.16,1.46-1.64,2.72-1.47,0,0,.11,.03,.11,.03,.84,1.16,2.72,.68,3.37,2.14Z" fill="#fff"/><path d="M313.78,20.3c-.71-2,1.42-5.01-2.12-6.02,.69-.71,1.38-1.42,2.07-2.12,1.89-.06,1.39,1.38,1.52,2.42,.65,2,1.13,3.98-.33,5.86-.38-.05-.76-.1-1.14-.14Z" fill="#fff"/><path d="M326.73,12.14c.04,.37,.08,.73,.12,1.1,.36,1.75,.46,3.47-.64,5.03-.47,.33-.94,.33-1.42,.01-.38-.38-.63-.83-.75-1.35-.17-1.34-.16-2.63,.87-3.68,.12-.74,.25-1.49,.37-2.23,.48,.37,.96,.75,1.45,1.12Z" fill="#fff"/><path d="M309.6,21.31c-.8,.1-1.59,.2-2.39,.3-1.21-.11-2.15-1.07-1.38-1.86,1.12-1.15,2.7-.82,3.83,.53,.27,.25,.35,.48,.25,.71-.11,.22-.21,.33-.31,.33Z" fill="#fff"/><path d="M324.8,17.37l.09,1.04c-.05,.2-.1,.4-.14,.61-.2,.37-.45,.71-.76,1-.17,.13-.34,.25-.52,.38-.59,.32-1.2,.44-1.86,.2-.7-.57-1.31-1.18-.79-2.19,.41-.4,.81-.81,1.22-1.21,.18-.03,.37-.05,.55-.05,.78-.42,1.52-.43,2.2,.22Z" fill="#fff"/><path d="M324.8,17.37c-.73-.07-1.46-.15-2.2-.22,.65-1.37-.57-3.85,2.31-3.9-.04,1.37-.08,2.75-.12,4.12Z" fill="#fff"/><path d="M308.65,27.51c.33,0,.66,0,.99,0,1.05,.96,1.04,2.13,.7,3.37-.21,.45-.55,.78-1.01,.99-.23-.07-.46-.14-.7-.21-.67-1.38-3.82-2.77,.01-4.14Z" fill="#fff"/><path d="M314.92,14.27c-.26-.78-.25-1.7-1.18-2.1,1.32-1.58,2.62-1.47,3.92,.03-.67,.69-1.34,1.38-2,2.07-.24,.46-.49,.49-.73,0Z" fill="#fff"/><path d="M302.68,23.99c.28,1.06-.11,1.52-.61,1.27-.51-.26-.92-.9-1.16-1.46-.24-.55,.2-1.11,.74-.87,.52,.23,.86,.88,1.03,1.06Z" fill="#fff"/><path d="M304.75,32.74c-.76-.34-.86-.74-.11-1.22,1.33,.04,2.67,.09,4,.13,0,0-.09-.06-.09-.06,.41,.48,.38,.94-.06,1.38-1.31,.86-2.54,.53-3.75-.23Z" fill="#fff"/><path d="M309.6,21.31c.02-.35,.04-.69,.06-1.04,.79,.14,1.74-.05,2.02,1.06-.02,.24-.04,.48-.07,.72-.03,.21-.06,.42-.1,.63-.21,.05-.41,.1-.62,.14-.18-.11-.35-.23-.53-.34-.2-.37-.44-.72-.72-1.03l-.05-.14Z" fill="#fff"/><path d="M353.38,54.85c-2.06,.11-4.16,.46-5.9-1.12-.6-.48-.65-.98-.05-1.5,2.3-.15,4.65,2.02,6.89-.17,.65-.61,1.35-.68,2.09-.16l.13,.13c1.22,3.49-2.05,1.95-3.17,2.82Z" fill="#fff"/><path d="M354.43,43.6c1.04,.27,2.26,.05,3.03,1.09-2.47,.5-4.87,2.44-7.77,.3,1.4-1.66,3.31-.77,4.74-1.4Z" fill="#fff"/><path d="M356.42,51.9c-.7,.05-1.39,.1-2.09,.16-1.1-1.59-3.63-.49-5.19-2.98,3.21,.42,5.75,.75,8.29,1.08-.34,.58-.68,1.16-1.02,1.74Z" fill="#fff"/><path d="M346.29,34.48c.02-.26,.03-.53,.02-.8,1-1.53,2.31-2.04,4.03-1.25,.7,.12,1.39,.24,2.09,.36-.03,1.31-.64,2.23-1.83,2.78-1.57,.16-3.04-.07-4.31-1.09Z" fill="#fff"/><path d="M347.44,52.23c.02,.5,.03,1,.05,1.5-.07,.5-.15,1.01-.22,1.51-.87,.62-1.66,1.61-2.89,.67,.41-2.66,.99-5.21,3.92-6.29-.29,.87-.57,1.74-.86,2.61Z" fill="#fff"/><path d="M353.38,54.85c.94-1.07,3.16-.7,3.17-2.82,1.19,.72,2.43,1.24,3.86,.85-1.36,4.14-4.7,1.26-7.03,1.97Z" fill="#fff"/><path d="M349.6,62.08c-.4,.03-.8,.06-1.2,.09-1.94-1.12-5.19-1.21-3.92-4.9l.09,.04c1.44-1.62,2-.16,2.72,.77,.37,.37,.73,.74,1.1,1.1,.4,.97,.81,1.93,1.21,2.9Z" fill="#fff"/><path d="M347.29,58.08c-.91-.26-1.82-.51-2.72-.77-.07-.47-.13-.94-.2-1.41,.96-.22,1.93-.45,2.89-.67,0,.95,.02,1.9,.03,2.85Z" fill="#fff"/><path d="M361.6,41.04c.26,1.92,1.71,1.76,3.07,1.76-1.36,1.43-2.72,1.43-4.08,0,.05-.75,.04-1.54,1-1.77Z" fill="#fff"/><path d="M355.49,28.51c1.01,.02,2.02,.04,3.03,.07,.22,1.83-2.17,2.33-2.07,4.09-.26,.29-.59,.42-.98,.42-.38-.04-.7-.2-.95-.5-.4-.03-.81-.06-1.21-.09-.17-1.83,.94-2.95,2.18-3.99Z" fill="#fff"/><path d="M348.25,24.39c.09,2.01,1.84,2.37,3.15,3.16,.28,.19,.37,.37,.28,.57-.09,.19-.18,.29-.27,.29-.71,.29-1.41,.59-2.12,.88-.48,1.27-1.21,2.13-2.74,1.67-1.24-1-.88-2.11-.22-3.25,.34-.34,.71-.65,1.11-.93,.07-.79,.13-1.57,.2-2.36,.21-.01,.42-.03,.63-.04Z" fill="#fff"/><path d="M346.31,30.86c.99-.52,1.99-1.05,2.98-1.57,.35,1.05,.7,2.1,1.05,3.15-1.34,.42-2.69,.83-4.03,1.25-.32-.08-.64-.16-.95-.25-.32-.6-.22-1.18,.06-1.76,.22-.36,.52-.63,.89-.82Z" fill="#fff"/><path d="M351.41,28.4c0-.28,0-.57,0-.85,.37-.34,.74-.68,1.11-1.03-.15,.75-.18,1.58-1.1,1.88Z" fill="#fff"/><path d="M354.51,32.59c.3,0,.61,0,.91,0,.31,.23,.41,.45,.31,.68-.1,.23-.2,.34-.31,.34-.3-.34-.61-.68-.91-1.02Z" fill="#fff"/><path d="M355.42,33.61c0-.34,0-.68,0-1.02,.34,.03,.68,.05,1.02,.08,.02,.32,.04,.64,.06,.97-.36,0-.72-.02-1.09-.03Z" fill="#fff"/><path d="M332.04,61.28c.92-.09,1.85-.19,2.77-.28,.69-.34,1.21-.12,1.6,.5,.19,1.25,.4,2.5-.19,3.72-.66,1.01-1.32,2.02-1.98,3.03-.15-.26-.26-.53-.34-.82-.94-.93-1.08-2.51-2.51-3.02-.41-.18-.8-.42-1.16-.68-.35-.32-.49-.73-.45-1.19,.43-1.01,1.59-.68,2.26-1.25Z" fill="#fff"/><path d="M336.22,65.21c-.21-1.04-1.6-2.03-.12-3.13,2.03-1.11,2.85,.52,3.87,1.71,.49,1.38,2,3-.81,3.65-.98-.74-1.97-1.48-2.95-2.23Z" fill="#fff"/><path d="M342.24,71.35c-1.03-.68-2.05-1.37-3.08-2.05,0-.35,0-.69,.01-1.04,.88-.5,1.62-1.43,2.83-.88,1.7,.79,1.92,2.41,2.27,3.97-.68,0-1.36,0-2.03,0Z" fill="#fff"/><path d="M342.01,67.38c-.94,.29-1.88,.59-2.83,.88-.01-.28-.02-.55,0-.83,1.67-.98,.15-2.23,.29-3.34,.39-.98,1.04-1.42,2.1-1.03,.69,.61,1.38,1.22,.72,2.26-.09,.68-.18,1.37-.27,2.05Z" fill="#fff"/><path d="M342.28,65.33c-.36-.73-.71-1.46-1.07-2.2-1.04-1.15-2.49-2.1-2.02-4.01,1.12-.56,2.24-1.13,3.36-1.69,.29,2.95,4.58,2.67,4.66,5.79-1.55,.89-.26,3.05-1.77,3.95-.86-.96-1.6-2.1-3.16-1.84Z" fill="#fff"/><path d="M346.35,31.7c-.33,.58-.66,1.16-1,1.74-2.81-1.94-5.62-3.88-8.43-5.83,.23-.38,.55-.66,.94-.87,.39-.18,.8-.33,1.2-.46,.81-.24,1.55-.71,2.42-.81l.9,2.36c.66,.54,1.51,.77,2.15,1.35,.74,.74,1,1.83,1.82,2.52Z" fill="#fff"/><path d="M341.49,25.48c-.13,1.18-.54,2.07-1.97,1.9-2.25-1.58-1.56-3.84-1.41-5.98,.29-1.28,.72-2.52,1.36-3.68,.28-.46,.68-.75,1.2-.89,.54-.06,1,.1,1.38,.48-.88,1.63-.74,3.38-.56,5.12,0,1.01,0,2.03,0,3.04Z" fill="#fff"/><path d="M344.28,29.41c-1.25,.22-1.91-.27-1.88-1.57,1.65-.47,3.1-1.92,5.04-1.05-.02,.22-.04,.44-.05,.66-1.08,.58-1.77,1.78-3.1,1.97Z" fill="#fff"/><path d="M348.32,22.41c.35-.02,.7-.05,1.05-.07-.37,.36-.74,.73-1.11,1.09,.02-.34,.04-.68,.07-1.02Z" fill="#fff"/><path d="M348.25,24.39c-.21,.02-.42,.03-.63,.04-.29-.68,.11-.93,.67-1.09-.01,.35-.03,.7-.04,1.05Z" fill="#fff"/><path d="M349.3,22.39c.4-.34,.8-.69,1.2-1.03,0,.35,.01,.71,.02,1.06-.41-.01-.81-.02-1.22-.03Z" fill="#fff"/><path d="M310.63,51.98c.35,.33,.7,.67,1.05,1,.51,4.07-2.01,4.46-5.08,4.19-.33-.07-.67-.11-1.01-.12-.08-.33-.1-.67-.06-1.01,.59-1.28,1.9-1.86,2.79-2.84,.77-.4,1.54-.81,2.31-1.21Z" fill="#fff"/><path d="M308.33,53.19c.17,2.03-1.74,2.01-2.79,2.84-.34-.67-.67-1.35-1.01-2.02,1.27-.27,2.53-.55,3.8-.82Z" fill="#fff"/><path d="M310.64,64.25c-.04-.36-.09-.71-.13-1.07,.34-1.37,.67-2.73,1.01-4.1-.21-4.2,.65-4.92,4.18-3.52,1.5,.89,2.09,2.21,1.82,3.93-.38,1.44-1.41,2.41-2.48,3.35-.18,.12-.37,.24-.55,.36-.38,.19-.78,.34-1.19,.44-.62,.03-1.22,.14-1.71,.59l.08-.06c-.32,.34-.67,.37-1.05,.09Z" fill="#fff"/><path d="M315.73,56.13c-3.63-2.2-3.29,1.28-4.21,2.95-1.64-.64-3.28-1.27-4.92-1.91,2.13-.87,4.35-1.63,5.08-4.19,0,0,.05-.05,.05-.05,.84-.68,1.64-1.51,2.89-.92,.41,.93,.83,1.86,1.24,2.79,.36,.49,.31,.93-.15,1.34Z" fill="#fff"/><path d="M329.08,70.99c.08-.83-.25-1.41-1.05-1.69-1.42-1.88-3.08-3.7-1.3-6.24,1.1-.49,2.2-.82,3.21,.2v-.02c1.32,1.11,1.33,2.54,.99,4.06,.13,1.6-.03,3.06-1.85,3.7Z" fill="#fff"/><path d="M331.29,63.31c4.05-.65,2.39,2.33,2.61,4.11-.58,.65-1.16,1.29-1.74,1.94-.11-.7-.23-1.39-.34-2.09-.67-1.25-1.34-2.51-.53-3.96Z" fill="#fff"/><path d="M331.29,63.31c.18,1.32,.36,2.64,.53,3.96-.3,0-.6,.02-.9,.03-1.38-1.1-.69-2.7-.99-4.06,.45,.02,.9,.04,1.36,.07Z" fill="#fff"/><path d="M347.21,63.22c-1.83-1.71-5.58-1.86-4.67-5.78,.65-.06,1.29-.11,1.94-.16,.32,2.43,3.15,2.84,3.92,4.9-.09,.26-.14,.53-.15,.81-.35,.08-.69,.15-1.04,.23Z" fill="#fff"/><path d="M300.5,43.66c1.98,.04,3.97,.08,5.95,.12,.71,.31,1.42,.61,2.13,.92-.83,2.02-1.86,1.72-2.99,.26-1.71,0-3.41,0-5.12,0,0-.43,.02-.86,.03-1.29Z" fill="#fff"/><path d="M313.64,63.23c.59-1.4,1.42-2.59,2.88-3.22,.96-.68,1.9-1.8,3.01-.18,.51,.6,.8,1.28,.86,2.07-.68,2.2,.98,5.36-2.6,6.38,.28-2.27-.99-3.17-3.01-3.4,.01-.23,0-.45-.06-.68-.35-.33-.92-.41-1.07-.97Z" fill="#fff"/><path d="M317.78,68.27c1.95-2.06,.32-5.03,1.82-7.21,3.37-1.05,3.15,1.49,3.49,3.48-.22,2.39-.7,4.63-3.3,5.64l-.46,.1s-.47-.03-.47-.03c-.34-.35-.69-.7-1.03-1.05-.04-.31-.06-.62-.06-.93Z" fill="#fff"/><path d="M342.04,17.31c-.26,0-.53,.01-.79,.02-.61-.7-.63-1.35,.13-1.95,.3-.02,.6-.07,.89-.14-.08,.69-.16,1.38-.23,2.07Z" fill="#fff"/><path d="M319.8,70.18c.82-1.6,1.97-3.07,2.07-4.98,1.08-1.06-.23-4.79,3.39-3.03,1.25,2.65,.79,5.02-1.2,7.12-.87,.97-1.54,2.29-3.23,1.8-.34-.31-.68-.61-1.03-.92Z" fill="#fff"/><path d="M341.39,15.38c-.04,.65-.09,1.3-.13,1.95-.33,.11-.65,.22-.98,.33-.77-.77-.63-1.57-.06-2.38,0,0,.02-.12,.02-.12,.39,.07,.77,.14,1.16,.22Z" fill="#fff"/><path d="M331.92,11.24c.08,2.01,.16,4.01,.24,6.02-.03,.43-.05,.87-.08,1.3-.46,.25-.95,.32-1.46,.25-.77-.32-1.21-.91-1.44-1.68-.21-1.08-.01-2.04,.83-2.81,.64-1.02,1.27-2.05,1.91-3.07Z" fill="#fff"/><path d="M330.02,14.31c0,1,0,2.01,0,3.01-.65,.63-1.37,.62-2.14,.25-.38-.38-.63-.84-.75-1.36-.17-1.09,.04-2.09,.69-2.98,1.48-1.17,1.19,1.29,2.21,1.08Z" fill="#fff"/><path d="M327.81,13.24c-.02,1.08-.04,2.16-.06,3.24-.48,.74-.02,2.39-1.8,1.87,.36-1.7-.76-3.66,.91-5.12,.32,0,.63,0,.95,0Z" fill="#fff"/><path d="M338.16,27.52c-.41,.03-.82,.06-1.23,.1-3.2-.7-6.41-1.32-9.72-1.01-.96,.44-1.86,.57-2.58-.43-.32-1.65-.78-3.31,.02-4.96,.9-.9,1.94-1.37,3.23-1.1,1.15,.7,1.09,2.4,2.41,2.95,.57,.17,1.15,.29,1.74,.27,1.81-.94-.1-2.86,1.05-3.96,1.28-.76,3.04-1.04,3.07-3.06,.37,.01,.73,.03,1.1,.04,2.36,2.61-.49,5.74,.84,8.46,.32,.9,.96,1.79,.06,2.71Z" fill="#fff"/><path d="M337.24,25.54c-2.55-3.07,.62-6.13,.01-9.19,.65-.07,1.3-.13,1.95-.2,.97,1.3,0,2.47-.25,3.7-.82,1.82,.59,4.32-1.72,5.69Z" fill="#fff"/><path d="M338.42,19.56c.26-1.14,.52-2.27,.79-3.41,.33-.29,.66-.58,1-.86,.02,.79,.04,1.58,.06,2.38,.06,1.07-.05,2.07-.91,2.84-.46-.17-.78-.48-.94-.95Z" fill="#fff"/><path d="M324.05,69.3c.26-2.38,1.46-4.65,.88-7.13,.21-.41,.54-.69,.96-.87,.65-.23,.94,.15,1.14,.67,.5,.51,.53,1.04,.09,1.61-.6,2.05,.67,3.81,.9,5.73-1.05-.55-2.09-.6-3.14,0,0,0-.42,0-.42,0h-.42Z" fill="#fff"/><path d="M310.64,64.25c.35-.03,.7-.06,1.05-.09-.35,.35-.69,.71-1.04,1.06,.02-.32,.02-.65,0-.97Z" fill="#fff"/><path d="M333.09,19.36c.45,1.26,1.09,2.5,1.3,3.8,.36,2.28-.93,2.06-2.38,1.32-1.35-1.84-1.57-3.68-.02-5.53,.37,.14,.73,.27,1.1,.41Z" fill="#fff"/><path d="M331.99,18.96c0,1.84,.01,3.69,.02,5.53-.66,0-1.33-.02-1.99-.02-1.64-2.44-1.08-4.41,1.26-6.01,.28,.02,.55,.06,.82,.11,0,0-.1,.4-.1,.4Z" fill="#fff"/><path d="M305.6,44.96c1.05,.57,2.07,.72,2.99-.26,.92,.24,2.37-.26,2.58,.99,.18,1.08-1.05,1.05-1.87,1.05-1.86,0-3.72-.03-5.58-.04,.63-.58,1.26-1.16,1.89-1.74Z" fill="#fff"/><path d="M311.6,64.22c.13-.6,.4-1.04,1.09-1.04,.33,.23,.44,.46,.32,.68-.12,.21-.24,.32-.35,.32,0,0,.05,.07,.05,.07-.37,0-.74-.02-1.11-.02Z" fill="#fff"/><path d="M313.64,63.23c.66-.02,1.02,.31,1.07,.97-.35,0-.7-.02-1.05-.03,0,0,.07,.06,.07,.06-.28-.23-.37-.47-.28-.7,.09-.23,.19-.35,.28-.35l-.09,.05Z" fill="#fff"/><path d="M313.73,63.18c0,.35,0,.7,0,1.05-.36-.02-.71-.04-1.07-.05,.02-.33,.03-.66,.04-1,.35,0,.69,0,1.04,0Z" fill="#fff"/><path d="M306.86,42.98c-1.4-.28-3.19,.06-3.37-2.14,1.35-.07,2.7-.21,4.05-.2,.83,0,1.96,.15,1.8,1.23-.2,1.3-1.53,.98-2.48,1.12Z" fill="#fff"/><path d="M313.77,38.14s0,.49,0,.49c-2.34,.14-4.44-.54-6.36-1.87,.18-.76,.65-1.28,1.35-1.61,.72-.23,1.45-.21,2.17,0,1.36,.61,2.73,1.21,2.84,3Z" fill="#fff"/><path d="M308.58,35.7c-.39,.35-.78,.7-1.17,1.05-1.28-.08-2.57-.15-3.85-.23,.07-.58,.13-1.16,.2-1.73,.64-.04,1.29-.08,1.93-.11,.45-.63,1.07-.66,1.75-.49,.63,.31,1.03,.8,1.13,1.51Z" fill="#fff"/><path d="M314.63,52c-.96,.31-1.93,.62-2.89,.92-.25-1.65,1.53-1.98,2.05-3.13,.28,.73,.56,1.47,.84,2.21Z" fill="#fff"/><path d="M311.61,22.06c1.19,1.47,2.74,2.42,4.48,3.06,1.97,.73,3.04,1.98,2.56,4.19-1.15,1.52-2.48,.54-3.77,.3-1.06-.4-1.94-1.04-2.61-1.96-.25-.33-.46-.69-.66-1.06-.09-.18-.16-.38-.25-.56-.09-.39-.15-.79-.18-1.18-.02-.39-.03-.79-.05-1.18,.02-.41,.21-.72,.57-.93-.1-.22-.13-.44-.09-.68Z" fill="#fff"/><path d="M316.86,15.31c.67,1.01,1.34,2.02,2.01,3.02,.96,1.38,1.19,2.75-.03,4.12-1.24-.15-1.4-1.39-2.1-2.07-1.25-1.72-2.64-3.45,.12-5.07Z" fill="#fff"/><path d="M318.85,22.46c0-1.37,.02-2.75,.03-4.12,.65,.02,1.3,.05,1.95,.07,.33,.52,.65,1.04,.98,1.56-.11,1.15,.98,2.19,.32,3.39-.35,.32-.73,.36-1.14,.13-.71-.34-1.43-.68-2.14-1.03Z" fill="#fff"/><path d="M324.93,25.67c.76,.31,1.52,.62,2.28,.94-2.08,.75-4.17,1.5-6.25,2.25-.04-.43-.09-.87-.13-1.3,1.36-.83-.17-3.43,2.22-3.63,1.01,.17,1.7,.68,1.88,1.74Z" fill="#fff"/><path d="M316.86,15.31c-1.91,1.65-.14,3.38-.12,5.07-.61,.02-1.22,.04-1.82,.06,0-2.06,0-4.12,0-6.18,.24,0,.49,0,.73,0,.4,.35,.81,.7,1.21,1.04Z" fill="#fff"/><path d="M322.91,24.06c-.97,1,.19,3.27-2.08,3.49-.16-1.37-.95-2.76,.16-4.07,.49,.03,.98,.06,1.47,.08,.15,.16,.3,.33,.45,.49Z" fill="#fff"/><path d="M314.72,28.8c1.45-.88,2.52,1.15,3.94,.52,.06,.36,.11,.73,.17,1.1-.3,.15-.62,.21-.95,.17-2.87,2.61-3.06,.49-3.16-1.79Z" fill="#fff"/><path d="M314.72,28.8c.77,1.09,1.06,3.04,3.16,1.79-1.37,2.52-2.74,5.03-4.1,7.55-1.02-.81-2.04-1.62-3.06-2.43,1.06-1.79-.99-2.83-1.05-4.36,0-1.28-.01-2.56-.02-3.85,.12-.91,.43-1.71,1.32-2.15,.3-.26,.58-.23,.82,.08l-.1-.05c.26,.35,.52,.7,.79,1.05,.75,.79,1.49,1.58,2.24,2.37Z" fill="#fff"/><path d="M310.48,23.55l-.87-1.1c.35-.34,.71-.33,1.07-.02l-.06-.05c.28,.28,.41,.61,.4,1-.18,.06-.36,.12-.54,.18Z" fill="#fff"/><path d="M310.69,22.42c-.36,0-.71,.02-1.07,.02-.04-.33-.03-.67,.03-1,.35,.32,.69,.65,1.04,.97Z" fill="#fff"/><path d="M311.67,23.06c.03,.43,.06,.86,.09,1.28-.28,.35-.63,.46-1.06,.35-.07-.38-.14-.77-.22-1.15,0,0,.24-.17,.24-.17,.26-.26,.58-.36,.95-.32Z" fill="#fff"/><path d="M310.7,24.69c.35-.12,.7-.23,1.06-.35,.01,.36,.02,.73,.03,1.09-.28-.02-.55-.04-.82-.08-.13-.2-.22-.42-.26-.66Z" fill="#fff"/><path d="M307.55,34.67c-.62,0-1.24,0-1.86,.01-.32-.65-.63-1.3-.95-1.95,1.26-.09,2.52-.19,3.79-.28,.63,1.16,.01,1.77-.98,2.21Z" fill="#fff"/><path d="M328.04,20.38c-1.13,.36-2.26,.73-3.39,1.09-1.36-.25-1.47-1.01-.82-2.06h.05c.34-.38,.73-.7,1.08-1.07,0,0-.07,.07-.07,.07,.35-.02,.7-.04,1.05-.06,.6-.62,1.2-1.25,1.81-1.87,.13,.28,.25,.55,.36,.84,.67,1.04,.78,2.07-.07,3.07Z" fill="#fff"/><path d="M323.83,19.41c-.09,.83,.02,1.59,.82,2.06,.04,1.4,2.05,2.67,.27,4.2-.67-.53-1.34-1.07-2.02-1.61-.1-.23-.25-.39-.46-.5-.27-1.19-2.07-2.1-.65-3.6,.67-.19,1.35-.37,2.02-.55Z" fill="#fff"/><path d="M324.96,18.34c-.36,.35-.72,.71-1.08,1.06,.36-.35,.72-.71,1.08-1.06Z" fill="#fff"/><path d="M307.55,34.67c.33-.74,.65-1.47,.98-2.21,.05-.29,.05-.58,.02-.86,.37-.08,.74-.16,1.11-.24,.68,.45,1.35,.92,2.05,1.33,.82,.48,2.15,.85,1.55,2-.32,.61-1.66,.7-2.55,1.02-.71,0-1.42,0-2.14,0-.34-.34-.68-.69-1.03-1.03Z" fill="#fff"/><path d="M311.67,23.06c-.32,.11-.63,.21-.95,.32-.05-.33-.08-.67-.1-1.01,.36,.12,.72,.25,1.08,.37,0,0-.03,.32-.03,.32Z" fill="#fff"/><path d="M339.19,59.12c1.06,1.14,2.49,2.1,2.02,4.01-.58,.32-1.17,.64-1.75,.96-1.28-.4-1.63-2.35-3.36-2.01-.43-.36-.86-.72-1.3-1.08,1.46-.63,2.92-1.25,4.38-1.88Z" fill="#fff"/><path d="M325.89,61.3c-.32,.29-.64,.58-.96,.87-2.51-.49-1.44,2.63-3.06,3.04-.69-1.42,1.26-4.28-2.26-4.14-.26-.26-.53-.51-.79-.77,.27-.42,.33-1.03,.98-1.1,2.57-.86,3.87,1.96,6.1,2.1Z" fill="#fff"/><path d="M319.8,59.2c-.33,.36-.66,.73-.98,1.1-.62-1.27-1.53-.15-2.29-.28,.45-1.44-.34-2.63-.79-3.88,.05-.44,.1-.89,.15-1.33,2.06,.8,3.85,1.84,3.92,4.4Z" fill="#fff"/><path d="M328.15,37.67c-2.12,1.19-3.53,1.22-5.49,.05,1.81-1.37,3.23-1.37,5.49-.05Z" fill="#fff"/><path d="M333.38,40.87c-.54,2.04-1.09,4.08-1.88,7.05-.9-3.15-1.19-5.23,.61-7.13,.45-.46,.88-.43,1.27,.08Z" fill="#fff"/><path d="M335.12,54.03c-1.92,1.07-3.7,2.96-6.12,1.01-.36-.58-.25-1.06,.32-1.42,2-.78,3.92-.52,5.8,.41Z" fill="#fff"/><path d="M335.12,54.03c-2.04,.03-4.07,.07-6.11,.1-.25-.25-.34-.49-.25-.74,.08-.25,.17-.37,.25-.37,2.35-1.54,4.31-.78,6.11,1.01Z" fill="#fff"/><path d="M335.11,37.73c1.17-1.69,2.79-1.2,4.64-.28-1.52,.49-3.04,.99-4.56,1.48-.53-.37-.55-.77-.08-1.2Z" fill="#fff"/><path d="M338.46,47.11c-.81-.33-1.85-.15-1.44-1.17,.18-.45,.98-.84,1.54-.91,.64-.08,1.45,.3,1.19,1.12-.15,.45-.92,.7-1.3,.95Z" fill="#fff"/><path d="M327.13,63.58c-.03-.54-.06-1.07-.09-1.61,1.58-.86,3.26-.99,5-.7-.7,.66-1.4,1.33-2.1,1.99-.94,.1-1.87,.21-2.81,.31Z" fill="#fff"/><path d="M329,53.02c0,.37,0,.74,0,1.11,.02,.3,.01,.61-.01,.91-.93-.07-2.44,.33-2.54-.73-.16-1.71,1.5-1.19,2.55-1.29Z" fill="#fff"/><path d="M325.26,39.66c.49,.35,1.09,.56,1.18,.89,.22,.86-.48,1.18-1.16,1.08-.35-.05-.85-.57-.88-.9-.02-.3,.5-.65,.86-1.07Z" fill="#fff"/><path d="M325.66,45.69c.03,.93-.7,1.03-1.32,1.02-.43,0-1.13-.25-1.24-.56-.27-.74,.21-1.18,1-1.21,.64-.02,1.31-.06,1.57,.75Z" fill="#fff"/><path d="M335.11,37.73c.03,.4,.05,.8,.08,1.2-.61,.64-1.21,1.29-1.82,1.93-.42-.03-.84-.05-1.27-.08,.45-1.56,1.44-2.59,3.01-3.06Z" fill="#fff"/><path d="M344.28,29.41c.59-1.35,1.63-1.99,3.1-1.97-.36,1.14-.71,2.28-1.07,3.42,.07,.28,.09,.56,.04,.84-1.47-.06-2.12-.86-2.08-2.29Z" fill="#fff"/><path d="M338.42,19.56c.31,.32,.63,.63,.94,.95,.22,2.29-.76,4.6,.16,6.88-.45,.05-.91,.09-1.36,.14,0-.8-.15-1.53-.92-1.98,1.26-1.82,.67-4.01,1.18-5.98Z" fill="#fff"/><path d="M328.04,20.38c.02-1.02,.05-2.05,.07-3.07,.63,0,1.27,0,1.9,.01,.42,.37,.84,.75,1.26,1.12-.71,1.94-1.41,3.89-1.26,6.01-3.57,.05-1.11-2.82-1.97-4.08Z" fill="#fff"/><path d="M312.48,26.43c-.26-.35-.53-.7-.79-1.05,.68,.03,.81,.48,.79,1.05Z" fill="#fff"/></g><g><path d="M358.08,268.62c-.26,.4-.51,.81-.77,1.21,.7,2.45,1.39,4.9,2.09,7.34h.4s.38-.13,.38-.13c.61,.15,1.06-.04,1.37-.59,.57-2.92-.28-5.47-2.01-7.8-.48-.43-.96-.44-1.46-.03Z" fill="#fff"/><path d="M359.03,268.39c.75,2.75,1.51,5.51,2.26,8.26-.12,1.47,.94,2.62,1.08,4.01l.08,.43c1.39,.7,2.05,2.17,3.26,3.06,.48,1.15,1.85,1.49,2.37,2.61,2.78,1.57,5.07,4.47,8.87,3.28,.46-.6,1.03-.46,1.61-.25,.51,.2,.98,.49,1.49,.69,.71,0,1.39,.11,1.99,.52,.34,.09,.69,.14,1.05,.15,.71,0,1.42,.05,2.13,.16,.76,.12,1.51,.2,2.28,.1,.41-.11,.74-.33,1.02-.64,.45-.79,.61-1.58,.03-2.38-.94-1.04-2.42-.87-3.51-1.59-.4,.07-.79,.15-1.19,.22-1.71-1.48-1.84-3.48-1.86-5.52,.41-1.98-2.01-3.08-1.56-5.07-.12-.53-.38-.98-.84-1.28-.71-1.07,.81-1.16,.85-1.9-.16-1.22,.42-2.12,1.24-2.92-.22-1.41-.85-2.48-2.3-2.89-.19-.63-.38-1.26-.57-1.89-1.17-.57-2.07-1.43-2.75-2.53-.26-.35-.57-.64-.91-.9-.89-.63-1.87-1.01-2.99-.94-.56,.16-1.16,.21-1.18,.23,.3-.18,1.23-.24,2.09-.49,.85-.47,.98-1.32,1.15-2.15,.14-.4,.23-.81,.27-1.23-.01-1.45-.02-2.9-.27-4.34,.78-.92,1.57-1.83,2.35-2.75,.24-1.3,1.16-2.26,1.76-3.37,.49-.52,.98-1.04,1.48-1.55,3.65-.8,6.9-3.2,10.88-2.67,1.41-.48,2.99-.21,4.35-.93,.44-.32,.61-.75,.51-1.29-.88-.67-1.76-1.34-2.64-2.01-1.59-.33-3.22,.18-4.8-.28-1.44-.19-2.85,.24-4.28,.18-3.76,.31-7.37,1.14-10.62,3.17-.92,1.19-2.69,1.34-3.42,2.78l-.38,.07c-1.69,.38-2.68,1.59-3.53,2.96-.87,.6-1.74,1.2-2.61,1.8-.56,2.23-1.74,4.12-3.21,5.84-.18,1.74-.36,3.48-.54,5.22-.82,1.41-.91,3.1-1.69,4.53,.06,.15,.11,.31,.14,.46,.99,.78,.46,2.09,1.04,3.01Z" fill="#fff"/><path d="M388.48,288.78c-.13,.72-.26,1.43-.39,2.15,.46,2.3,2.16,1.6,3.61,1.49,1.6,.14,2.92-.62,4.26-1.33,1.99-.48,3.76-1.34,5.13-2.92,1.29-.35,2.07-1.19,2.4-2.47-.55-.59-1.24-.68-1.99-.55-.95,.15-1.66,.82-2.52,1.18-1.71,1.09-3.59,1.62-5.61,1.71-1.3-.05-2.59,.09-3.88,.16-.47-.02-.8,.18-1.01,.59Z" fill="#fff"/><path d="M373.35,242.49c3.27-2.39,7.1-2.95,10.97-3.39,.38-.36,.95-.58,.91-1.24-1.4-.61-2.76,.02-4.13,.17-1.9,.56-3.8,1.11-5.7,1.67-1.26,.56-2.73,.74-3.59,2,.34,.61,.86,.86,1.54,.8Z" fill="#fff"/><path d="M391.12,242.33c-4.2-.48-7.87,.91-11.29,3.19,4.09,.37,7.57-2.2,11.55-2.38,.23-.27,.26-.48,.11-.63-.15-.15-.27-.2-.37-.18Z" fill="#fff"/><path d="M389.35,288.16c1.22,1.5,2.68,.3,4.03,.35,1.96-.03,3.76-.61,5.47-1.51,.84-.41,1.68-.81,2.53-1.22-.55-1.51-1.29-.79-2.02-.17-3.33,1.07-6.74,1.8-10.23,2.1,.07,.15,.15,.3,.22,.45Z" fill="#fff"/><path d="M407.69,283.05c2.25-1.49,2.72-4.06,4.34-6.5-3.26,.1-3.54,2.81-5.03,4.1-.5,1.01-.31,1.82,.69,2.4Z" fill="#fff"/><path d="M391.38,292.08c-1.3,.18-2.4-.19-3.3-1.15-.32,0-.63,.07-.92,.21-.16,.05-.33,.1-.49,.15-.67,.2-1.29,.49-1.77,1.02-.07,.16-.14,.32-.21,.48,2.23,2.49,4.61,.6,6.93,.23,.16-.26,.17-.49,.05-.68-.13-.19-.22-.27-.29-.25Z" fill="#fff"/><path d="M381.94,270.82c-1.74,0-2.52,.71-1.82,2.49-.21,.89-2.36,.62-1.32,2.24,.39,.24,.78,.49,1.17,.73,.42,.33,.73,.27,.91-.26,.83-1.64,.91-3.42,.99-5.2h.08Z" fill="#fff"/><path d="M399.36,285.6c.67,.06,1.35,.12,2.02,.18,.7-.03,1.41-.05,2.11-.08,.58-.27,1.16-.55,1.74-.83,.38-1.01,.36-1.9-.7-2.49-1.72,1.07-3.44,2.15-5.16,3.22Z" fill="#fff"/><path d="M380.87,276.02c-.3,.1-.6,.19-.91,.26-1.03,2.31,1.29,3.62,1.65,5.52,.43,.36,.72,.25,.88-.27,1.38-2.4-1.83-3.45-1.62-5.51Z" fill="#fff"/><path d="M382.5,281.53c-.29,.09-.59,.18-.88,.27-.89,2.44-.58,4.37,2.24,5.21-.46-1.83-.91-3.66-1.37-5.48Z" fill="#fff"/><path d="M375.26,262.61c.74,1.53,1.09,3.53,3.57,2.94-1.08-1.69-2.16-3.38-3.23-5.07-.66,.63-.66,1.36-.34,2.14Z" fill="#fff"/><path d="M391.38,292.08c.08,.31,.16,.62,.25,.93,1.91,.76,3.23-.38,4.58-1.42,.24-.28,.29-.51,.14-.68-.15-.18-.28-.25-.38-.22-1.53,.46-3.06,.93-4.59,1.39Z" fill="#fff"/><path d="M374.24,253.19c-.72,1.64-.76,3.32-.31,5.03,.26,.54,.67,.84,1.3,.77,.14-2.01,.74-4.1-.99-5.79Z" fill="#fff"/><path d="M395.28,243.21c1.12,.52,2.83,1.44,3.25,0,.57-1.93-1.46-2.26-2.97-2.57,0,.2,.07,.37,.21,.52-.48,.6-.74,1.26-.49,2.05Z" fill="#fff"/><path d="M388.23,239.03c1.61,.36,3.19,.48,4.69-.4-1.49-1.4-3.44-.61-5.12-1.11-.42,.66-.25,1.16,.43,1.51Z" fill="#fff"/><path d="M404.52,282.38c.23,.83,.47,1.66,.7,2.49,.82-.61,1.65-1.22,2.47-1.83-.23-.8-.46-1.6-.69-2.4-.83,.58-1.65,1.15-2.48,1.73Z" fill="#fff"/><path d="M389.35,288.16c-.11-.14-.18-.29-.22-.45-1.05-1.68-2.64-.95-4.07-.91,.48,1.81,2.16,1.54,3.42,1.99,.29-.21,.58-.41,.87-.62Z" fill="#fff"/><path d="M395.97,290.69c.08,.3,.16,.6,.24,.9,1.96-.67,4.52-.48,4.87-3.42-1.7,.84-3.41,1.68-5.11,2.52Z" fill="#fff"/><path d="M395.28,243.21c.16-.68,.33-1.36,.49-2.05-1.55,.39-3.1,.78-4.65,1.17,.09,.27,.17,.54,.26,.8,1.3,.02,2.6,.05,3.9,.07Z" fill="#fff"/><path d="M362.37,280.66c1.31-1.79-.23-2.81-1.08-4.01-.37,.13-.74,.26-1.11,.4,.55,1.32,.79,2.81,2.19,3.62Z" fill="#fff"/><path d="M366.29,284.16c-1.1-1.25-1.39-3.51-3.84-3.07,.6,1.41,1.4,2.66,2.84,3.36,.48,.41,.82,.32,1-.29Z" fill="#fff"/><path d="M378.35,247.07c-1.59,.6-2.57,1.52-1.76,3.37,1.08-.87,2.29-1.66,1.76-3.37Z" fill="#fff"/><path d="M388.23,239.03c-.14-.5-.29-1.01-.43-1.51-.86,.11-1.72,.22-2.58,.34-.3,.41-.61,.83-.91,1.24,1.31-.02,2.61-.05,3.92-.07Z" fill="#fff"/><path d="M366.29,284.16c-.33,.1-.67,.2-1,.29,.6,1.17,1.49,1.99,2.78,2.31,.44-1.58-1.16-1.76-1.78-2.6Z" fill="#fff"/><path d="M375.23,258.99c-.43-.26-.87-.51-1.3-.77,0,0-.25-.03-.25-.03,.01,1.67,.01,3.35,1.39,4.62,0,0,.19-.2,.19-.2,.11-.71,.23-1.42,.34-2.14-.12-.5-.24-.99-.37-1.49Z" fill="#fff"/><path d="M381.94,270.82s-.08,0-.08,0c.27-1.92,.49-3.81-2.46-3.39,.85,1.13,1.69,2.26,2.54,3.38Z" fill="#fff"/><path d="M382.05,290.7c-.55-.76-1.3-.75-2.1-.57-.2,.26-.23,.47-.08,.61,.14,.14,.26,.2,.35,.18,.4,.28,.8,.56,1.2,.85,.15,.05,.31,.1,.46,.16,.33-.09,.56-.3,.7-.61,.01-.37-.15-.58-.53-.62Z" fill="#fff"/><path d="M381.41,291.77l-.89,.42c-.16,.23-.18,.42-.06,.58,.12,.16,.21,.23,.28,.21,.59,.7,1.34,.6,2.11,.44,.23-.34,.23-.68,.04-1.03-.42-.42-1.05-.35-1.53-.62h.07Z" fill="#fff"/><path d="M382.58,292.5c.08,.31,.17,.61,.27,.92,.99,.87,1.09-.85,1.85-.63,0,0-.05,.07-.05,.07,.09-.19,.18-.37,.28-.56-.18-.4-.49-.64-.92-.74-.67,.02-1.19,.27-1.43,.95Z" fill="#fff"/><path d="M378.78,289.52c-.84-.65-1.53-.76-1.83,.52,.69,.15,1.38,.3,2.08,.45,.21-.29,.24-.52,.1-.72-.15-.2-.26-.28-.35-.26Z" fill="#fff"/><path d="M378.78,289.52c.08,.32,.17,.65,.25,.97,.4,.14,.79,.29,1.19,.43-.07-.27-.16-.53-.27-.79-.39-.21-.78-.41-1.17-.62Z" fill="#fff"/><path d="M380.74,292.98c-.07-.26-.14-.53-.21-.79-.2,.11-.4,.21-.6,.32,.27,.16,.54,.31,.81,.47Z" fill="#fff"/><path d="M360.07,255.16c2.58-1.12,3.77-3,3.21-5.84-1.57,1.67-2.7,3.59-3.21,5.84Z" fill="#fff"/><path d="M357.84,264.91c2.39-.83,1.66-2.83,1.69-4.53-2.45,.81-1.63,2.84-1.69,4.53Z" fill="#fff"/><path d="M365.9,247.52c1.55-.54,2.62-1.65,3.53-2.96-2.63-.75-3.61,.47-3.53,2.96Z" fill="#fff"/><path d="M373.35,242.49c-.51-.27-1.03-.53-1.54-.8-1.29,.48-2.71,.86-2,2.78,1.18-.66,3.04-.11,3.54-1.98Z" fill="#fff"/><path d="M359.03,268.39c.41-1.26,.82-2.53-1.04-3.01,.03,1.08,.06,2.16,.1,3.24,.32-.08,.63-.16,.95-.23Z" fill="#fff"/><path d="M373.42,260.41c-.2,.39-.39,.78-.59,1.17,.75,.41,1.5,.82,2.25,1.23-.46-1.54-.92-3.08-1.39-4.62-.09,.74-.18,1.48-.27,2.22Z" fill="#fff"/><path d="M385.06,290.74c-.61-.65-1.33-.61-2.09-.31-.16,.21-.21,.42-.15,.62,.07,.22,.12,.32,.18,.31,.44,.3,.99,.31,1.46,.56l-.09-.03c.41,.25,.78,.21,1.13-.11,.13-.45,0-.8-.43-1.03Z" fill="#fff"/><path d="M385.06,290.74c.09,.24,.17,.48,.24,.72,.78,.58,1.39,.32,1.9-.4,0,0-.03,.07-.03,.07-.58-.77-1.33-.67-2.1-.4Z" fill="#fff"/><path d="M383.21,291.2c-.07-.26-.15-.52-.23-.77-.31,.09-.62,.18-.93,.27,.08,.18,.14,.36,.19,.55,.35,.43,.67,.42,.97-.05Z" fill="#fff"/><path d="M398.85,286.99c-1.83,.5-3.65,1.01-5.48,1.51,2.15,.69,3.97,.14,5.48-1.51Z" fill="#fff"/><path d="M387.2,291.07c-.63,.13-1.26,.27-1.9,.4-.31,.14-.63,.28-.94,.42,.1,.32,.19,.64,.29,.96,.94-.46,2.3-.33,2.55-1.78Z" fill="#fff"/><path d="M383.21,291.2c-.32,.02-.64,.03-.97,.05-.3,.17-.6,.34-.9,.51,.41,.24,.82,.49,1.23,.73,.63-.19,1.25-.39,1.88-.58-.41-.24-.83-.48-1.24-.71Z" fill="#fff"/></g></g></svg>